<?xml version="1.0" encoding="utf-8"?>
<!-- Generator: Adobe Illustrator 16.0.0, SVG Export Plug-In . SVG Version: 6.00 Build 0)  -->
<!DOCTYPE svg PUBLIC "-//W3C//DTD SVG 1.1//EN" "http://www.w3.org/Graphics/SVG/1.1/DTD/svg11.dtd">
<svg version="1.1" id="Layer_1" xmlns="http://www.w3.org/2000/svg" xmlns:xlink="http://www.w3.org/1999/xlink" x="0px" y="0px"
	 width="250px" height="164px" viewBox="0 0 250 164" enable-background="new 0 0 250 164" xml:space="preserve">
<g>
	<rect x="17.079" y="44.218" fill="none" width="153.588" height="112.503"/>
	<path d="M72.627,58.864c0,28.28-24.745,46.055-37.268,51.913c-0.505,0.304-1.01,0.404-1.818,0.404
		c-0.404,0-0.909-0.506-0.909-1.011c0-0.707,0.707-1.313,1.212-1.717c10.504-6.363,26.259-22.927,26.259-46.762
		c0-17.876-7.575-25.754-15.352-25.754c-7.272,0-12.12,6.464-12.12,15.049c0,15.453,9.999,19.088,13.433,19.088
		c3.535,0,5.555-0.606,6.868-1.212c1.111-0.606,1.616-1.111,2.02-1.111c0.404,0,0.808,0.404,0.808,0.909
		c0,0.303-0.303,0.909-0.505,1.111c-2.929,3.131-8.181,4.646-13.332,4.646c-14.544,0-20.604-11.009-20.604-19.493
		c0-13.634,10.302-23.532,25.855-23.532C63.639,31.393,72.627,43.512,72.627,58.864z"/>
	<path d="M87.576,108.757c-1.717-0.909-1.919-1.817-1.919-3.938c0-3.334-0.101-9.393,0.404-12.726
		c0.202-1.01,0.505-1.817,1.111-1.817c0.707,0,0.909,0.605,0.909,1.717c0,10.807,6.666,13.533,13.736,13.533
		c8.08,0,16.665-5.354,16.665-18.482c0-16.16-17.574-22.826-25.553-23.937c-1.212-0.202-1.919-0.707-1.818-2.02l2.323-26.664
		c0.101-1.01,0.808-1.313,1.919-1.313h24.744c2.828,0,4.545-0.101,5.656-0.303c1.11-0.101,1.718-0.404,2.021-0.404
		c0.808,0,1.011,0.404,1.011,1.919c0,2.121-0.304,6.565-1.313,12.928c-0.101,0.606-0.402,1.212-1.109,1.212
		c-0.606,0-0.81-0.606-0.81-1.414c0-2.828-0.707-5.454-8.888-5.454H98.281l-1.414,12.322c15.049,2.424,33.431,10.706,33.431,28.279
		c0,13.433-9.797,28.38-33.229,28.38C93.837,110.574,90.101,109.969,87.576,108.757z"/>
</g>
<g>
	<rect x="88.494" y="102.768" fill="none" width="166.665" height="80.59"/>
	<path fill="#808080" d="M118.291,130.309c0.224,0.1,0.387,0.371,0.485,0.813c0.099,0.444,0.144,0.957,0.137,1.537
		c-0.008,0.58-0.112,1.177-0.311,1.789c-0.2,0.612-0.487,1.138-0.858,1.571c-1.753,0.535-3.261,0.903-4.526,1.105
		c-1.267,0.202-2.538,0.221-3.816,0.055c1.005-1.3,1.705-2.299,2.095-2.998c0.391-0.697,0.627-1.418,0.713-2.158
		c-1.31,0.52-2.882,1.472-4.714,2.853c-1.833,1.382-3.5,2.81-4.997,4.284c-0.056,0.002-0.082,0.029-0.08,0.082
		c-0.481,0.49-1.001,1.051-1.56,1.675c-0.559,0.626-1.064,1.25-1.512,1.871c-0.449,0.622-0.844,1.188-1.186,1.701
		c-0.343,0.514-0.537,0.901-0.582,1.167c0.341,0.252,1.117,0.316,2.331,0.195c1.212-0.121,2.63-0.343,4.251-0.662
		c1.62-0.32,3.349-0.724,5.187-1.209c1.836-0.485,3.578-0.928,5.224-1.33c1.646-0.398,3.087-0.727,4.323-0.979
		s2.075-0.36,2.52-0.325c0.002,0.053-0.026,0.08-0.08,0.082c-0.218,0.113-0.817,0.372-1.799,0.774
		c-0.982,0.403-2.142,0.879-3.478,1.426c-1.337,0.548-2.783,1.124-4.338,1.731c-1.556,0.607-3.017,1.173-4.381,1.695
		c-1.366,0.521-2.539,0.984-3.521,1.387c-0.982,0.404-1.583,0.637-1.802,0.695c-1.636,0.689-3.402,0.857-5.294,0.502
		c-2.226-0.345-3.977-1.336-5.25-2.979c-0.119-0.206-0.237-0.438-0.356-0.699c-0.121-0.259-0.24-0.519-0.359-0.778
		c-0.152-1.205,0.27-2.551,1.27-4.035c0.999-1.483,2.193-2.936,3.583-4.354c1.389-1.419,2.796-2.707,4.223-3.862
		c1.425-1.156,2.461-2.01,3.106-2.56c0.377-0.276,0.974-0.627,1.79-1.052c0.816-0.424,1.728-0.812,2.74-1.162
		c1.011-0.352,2.107-0.652,3.289-0.905c1.181-0.251,2.325-0.344,3.435-0.278c0.833,0.077,1.355,0.416,1.571,1.014
		c0.214,0.599,0.498,1.182,0.85,1.748C116.902,130.146,117.462,130.338,118.291,130.309z"/>
	<path fill="#808080" d="M160.389,107.572c-0.42,0.699-1.061,1.736-1.926,3.109c-0.863,1.375-1.82,2.91-2.867,4.606
		c-1.049,1.696-2.162,3.448-3.345,5.255c-1.183,1.809-2.271,3.506-3.267,5.094c-0.996,1.59-1.861,2.95-2.598,4.084
		c-0.734,1.131-1.207,1.859-1.416,2.184c0.818-0.293,1.797-0.786,2.936-1.485c1.138-0.698,2.088-1.192,2.854-1.483
		c0.872-0.347,1.742-0.39,2.609-0.131c0.867,0.26,1.591,0.803,2.174,1.625c0.406,0.565,0.745,1.146,1.016,1.742
		c0.271,0.598,0.389,1.238,0.357,1.924c0.007,0.211-0.041,0.424-0.145,0.639c-0.101,0.318-0.355,0.896-0.771,1.727
		c-0.414,0.832-0.894,1.77-1.438,2.816c-0.543,1.047-1.115,2.146-1.709,3.301c-0.598,1.154-1.141,2.229-1.631,3.219
		c-0.492,0.993-1.047,2.133-1.666,3.418c0.381-0.172,1.305-0.65,2.771-1.439c1.466-0.789,3.014-1.659,4.641-2.613
		c1.9-1.016,4.018-2.195,6.35-3.541c-2.258,1.871-4.274,3.548-6.049,5.033c-0.752,0.658-1.52,1.291-2.299,1.897
		c-0.781,0.607-1.482,1.158-2.102,1.654c-0.619,0.495-1.145,0.896-1.576,1.201c-0.434,0.304-0.703,0.485-0.811,0.542
		c-2.127,0.916-4.211,0.646-6.254-0.811c-0.852-0.603-1.383-1.148-1.594-1.644c-0.212-0.493-0.195-1.22,0.049-2.177
		c0.235-1.166,0.672-2.184,1.305-3.049c0.635-0.865,1.295-1.758,1.982-2.679c0.737-1.024,1.436-2.038,2.094-3.036
		c0.656-0.998,1.353-2.035,2.09-3.117c-0.057-0.049-0.114-0.086-0.17-0.111c-0.058-0.024-0.114-0.088-0.172-0.192
		c-2.146,0.341-4.059,1.104-5.73,2.296c-1.674,1.191-3.137,2.48-4.389,3.868s-2.271,2.741-3.055,4.06
		c-0.783,1.318-1.388,2.274-1.809,2.869c-0.053,0.107-0.171,0.271-0.355,0.486c-0.188,0.219-0.513,0.439-0.974,0.666
		c-0.463,0.229-1.106,0.383-1.935,0.463c-0.828,0.082-1.883,0.014-3.162-0.205c-0.109,0.004-0.393-0.171-0.848-0.523
		c-0.455-0.354-0.713-0.58-0.771-0.686c0.097-0.425,0.17-0.689,0.221-0.798c0.054-0.106,0.076-0.213,0.072-0.319
		c4.928-7.813,9.412-14.873,13.452-21.18c1.732-2.695,3.425-5.363,5.074-8.003c1.65-2.64,3.172-5.024,4.564-7.155
		c1.391-2.13,2.546-3.923,3.464-5.377c0.917-1.455,1.509-2.346,1.774-2.672c1.217-1.57,2.496-1.402,3.836,0.499
		c0.461,0.563,0.813,1.132,1.055,1.702C160.777,106.057,160.807,106.874,160.389,107.572z"/>
	<path fill="#808080" d="M192.697,144.497c0.004,0.106,0.537-0.099,1.598-0.608c1.061-0.512,2.243-1.133,3.545-1.863
		c1.467-0.789,3.178-1.743,5.129-2.866l0.031,0.868c-1.672,1.271-3.266,2.381-4.781,3.328c-1.301,0.785-2.604,1.502-3.908,2.152
		c-1.306,0.652-2.293,0.885-2.965,0.696c-1.004-0.228-1.617-0.786-1.842-1.675c-0.227-0.889-0.294-1.649-0.205-2.285
		c-1.342,1.207-2.592,2.252-3.75,3.135c-1.16,0.885-2.117,1.55-2.877,1.998c-0.652,0.339-1.275,0.716-1.869,1.132
		c-0.595,0.416-1.246,0.769-1.955,1.058c-1.636,0.688-3.4,0.855-5.295,0.5c-2.226-0.344-3.976-1.336-5.25-2.979
		c-0.117-0.206-0.236-0.438-0.354-0.699c-0.121-0.259-0.24-0.518-0.359-0.777c-0.151-1.207,0.271-2.551,1.271-4.035
		c0.998-1.484,2.193-2.936,3.582-4.354c1.39-1.418,2.797-2.707,4.224-3.863c1.425-1.156,2.462-2.01,3.106-2.56
		c0.377-0.276,0.975-0.627,1.789-1.051s1.728-0.812,2.739-1.163c1.011-0.352,2.106-0.652,3.288-0.904s2.325-0.345,3.436-0.277
		c0.832,0.076,1.354,0.414,1.57,1.012c0.215,0.6,0.497,1.184,0.85,1.749c0.059,0.104,0.146,0.206,0.261,0.308
		c0.285,0.254,0.619,0.729,1.005,1.428c0.383,0.697,0.538,1.576,0.465,2.632c0.008,0.211-0.014,0.436-0.06,0.674
		c-0.048,0.239-0.122,0.492-0.224,0.759c-0.054,0.057-0.078,0.096-0.078,0.122c0.002,0.026-0.025,0.067-0.078,0.121
		c-0.197,0.692-0.404,1.49-0.623,2.394c-0.217,0.903-0.437,1.781-0.654,2.631c-0.219,0.853-0.4,1.584-0.546,2.193
		C192.766,144.034,192.693,144.393,192.697,144.497z M175.355,144.628c0.771-0.078,1.899-0.632,3.387-1.659
		c1.484-1.025,2.979-2.211,4.482-3.556c1.5-1.343,2.823-2.681,3.969-4.013c1.143-1.33,1.758-2.313,1.847-2.949
		c-0.614-0.137-1.226-0.194-1.832-0.174c-0.554,0.021-1.158,0.107-1.817,0.262c-0.658,0.154-1.285,0.428-1.88,0.816
		c-0.378,0.277-1.012,0.746-1.901,1.41c-0.889,0.664-1.832,1.407-2.826,2.232c-0.995,0.825-1.963,1.689-2.897,2.591
		c-0.938,0.902-1.641,1.731-2.112,2.485c-0.472,0.755-0.615,1.365-0.435,1.833C173.521,144.376,174.193,144.617,175.355,144.628z"/>
	<path fill="#808080" d="M224.264,131.393c-0.424,0.596-1.043,1.486-1.856,2.674c-0.818,1.188-1.646,2.416-2.486,3.684
		c-0.842,1.27-1.604,2.415-2.287,3.439c-0.684,1.025-1.104,1.672-1.26,1.94c1.405-0.892,2.625-1.685,3.651-2.38
		c1.025-0.693,2.16-1.459,3.404-2.293s2.42-1.626,3.529-2.376c1.107-0.75,2.094-1.417,2.959-2.001
		c0.863-0.583,1.432-0.959,1.703-1.126c-0.156,0.271-0.678,0.802-1.563,1.596c-0.886,0.795-1.959,1.757-3.22,2.879
		c-1.262,1.125-2.616,2.306-4.067,3.541c-1.451,1.236-2.836,2.392-4.154,3.466c-1.318,1.073-2.447,1.996-3.389,2.767
		s-1.521,1.239-1.736,1.403l-0.721,0.737c-0.107,0.109-0.312,0.235-0.609,0.377c-0.299,0.144-0.654,0.261-1.066,0.354
		c-0.412,0.093-0.811,0.174-1.195,0.238c-0.383,0.065-0.69,0.051-0.914-0.047c-0.28-0.096-0.521-0.244-0.721-0.449
		c-0.201-0.203-0.416-0.433-0.647-0.688c-0.918-0.968-0.983-2.047-0.195-3.233l15.755-24.265c-1.328,0.046-2.404,0.084-3.234,0.112
		c-0.828,0.029-1.563,0.029-2.199-0.002c-0.637-0.029-1.246-0.063-1.83-0.096c-0.582-0.031-1.232-0.035-1.949-0.011
		c-0.277,0.011-0.529-0.062-0.756-0.211s-0.453-0.272-0.676-0.371c-0.34-0.198-0.693-0.397-1.059-0.596
		c-0.367-0.197-0.638-0.425-0.813-0.683c-0.522-0.721-0.824-1.42-0.904-2.104c-0.004-0.157,0.113-0.332,0.354-0.524
		c0.242-0.192,0.476-0.295,0.695-0.303c0.439-0.066,1.365-0.152,2.771-0.255c1.408-0.101,2.953-0.208,4.637-0.319
		s3.34-0.207,4.971-0.291c1.629-0.084,2.859-0.113,3.689-0.091c1.154-1.778,2.299-3.491,3.432-5.14
		c1.131-1.646,2.133-3.104,3.002-4.373c0.867-1.268,1.855-2.686,2.963-4.254c0.162-0.11,0.353-0.249,0.566-0.415
		c0.215-0.165,0.379-0.224,0.492-0.175c1.281,0.271,2.375,0.654,3.277,1.149c0.787,0.343,1.19,0.815,1.211,1.421
		c0.021,0.604-0.289,1.234-0.93,1.891c-0.158,0.216-0.464,0.648-0.908,1.296c-0.449,0.647-0.922,1.351-1.422,2.104
		c-0.5,0.756-0.986,1.471-1.459,2.146c-0.476,0.676-0.789,1.174-0.945,1.494c-0.104,0.216-0.232,0.432-0.393,0.646
		c-0.104,0.215-0.246,0.457-0.431,0.727c-0.187,0.271-0.383,0.566-0.593,0.891l5.464-0.428l1.733-0.219
		c0.166-0.006,0.347-0.013,0.539-0.02c0.193-0.007,0.349,0.041,0.463,0.143c0.621,0.399,1.258,0.772,1.906,1.119
		c0.646,0.346,1.256,0.746,1.826,1.2c0.115,0.154,0.234,0.414,0.359,0.778c0.123,0.363,0.133,0.681,0.033,0.947
		c-0.104,0.268-0.26,0.535-0.472,0.807c-0.211,0.271-0.454,0.438-0.729,0.5c-0.606,0.074-1.145,0.133-1.612,0.175
		c-0.47,0.043-1.188,0.095-2.151,0.154c-0.968,0.061-2.308,0.134-4.019,0.219c-1.713,0.087-4.06,0.233-7.039,0.442
		c-1.367,2.104-2.692,4.141-3.979,6.107C225.775,129.193,224.844,130.582,224.264,131.393z"/>
</g>
<g>
	<rect x="89.994" y="100.471" fill="none" width="166.665" height="80.59"/>
	<path d="M118.916,128.273c0.222,0.103,0.38,0.375,0.471,0.82c0.091,0.447,0.127,0.961,0.11,1.539
		c-0.019,0.581-0.132,1.176-0.342,1.784c-0.211,0.608-0.506,1.128-0.885,1.556c-1.762,0.506-3.276,0.848-4.545,1.027
		c-1.27,0.182-2.542,0.177-3.817-0.012c1.028-1.282,1.744-2.27,2.147-2.961c0.403-0.691,0.652-1.406,0.751-2.146
		c-1.319,0.497-2.908,1.421-4.764,2.77c-1.857,1.351-3.548,2.748-5.07,4.197c-0.056,0.002-0.083,0.028-0.082,0.08
		c-0.489,0.482-1.019,1.032-1.589,1.647c-0.57,0.616-1.085,1.231-1.544,1.845c-0.46,0.614-0.865,1.174-1.215,1.68
		c-0.352,0.508-0.552,0.894-0.602,1.156c0.336,0.26,1.111,0.337,2.327,0.236c1.214-0.102,2.636-0.297,4.263-0.588
		c1.625-0.293,3.361-0.664,5.207-1.118c1.844-0.453,3.594-0.865,5.247-1.237c1.653-0.371,3.099-0.673,4.34-0.904
		c1.24-0.231,2.081-0.326,2.525-0.281c0.001,0.053-0.027,0.078-0.082,0.08c-0.22,0.109-0.824,0.357-1.813,0.742
		c-0.989,0.388-2.157,0.842-3.502,1.365c-1.347,0.524-2.802,1.075-4.368,1.656c-1.566,0.58-3.037,1.119-4.41,1.617
		c-1.375,0.498-2.556,0.941-3.544,1.326c-0.989,0.387-1.594,0.607-1.813,0.664c-1.648,0.66-3.416,0.797-5.303,0.408
		c-2.219-0.383-3.952-1.406-5.197-3.07c-0.115-0.207-0.229-0.442-0.344-0.704c-0.116-0.261-0.231-0.522-0.346-0.784
		c-0.131-1.209,0.314-2.546,1.34-4.014c1.024-1.467,2.244-2.896,3.658-4.291s2.843-2.657,4.29-3.788
		c1.445-1.132,2.496-1.966,3.15-2.505c0.382-0.271,0.985-0.609,1.808-1.02c0.822-0.41,1.741-0.781,2.76-1.115
		c1.017-0.334,2.118-0.615,3.304-0.848c1.185-0.23,2.331-0.304,3.439-0.218c0.831,0.091,1.348,0.438,1.553,1.039
		c0.204,0.603,0.477,1.19,0.819,1.764C117.529,128.088,118.086,128.288,118.916,128.273z"/>
	<path d="M160.043,105.605c-0.432,0.691-1.09,1.718-1.979,3.076c-0.89,1.358-1.873,2.877-2.949,4.555
		c-1.078,1.679-2.223,3.41-3.436,5.195c-1.214,1.787-2.332,3.467-3.354,5.036c-1.024,1.572-1.913,2.918-2.667,4.037
		c-0.756,1.119-1.241,1.839-1.456,2.159c0.825-0.277,1.812-0.756,2.962-1.436c1.148-0.679,2.107-1.154,2.879-1.434
		c0.878-0.331,1.748-0.357,2.611-0.085c0.861,0.274,1.576,0.829,2.145,1.661c0.396,0.574,0.727,1.16,0.984,1.761
		c0.26,0.603,0.367,1.246,0.324,1.931c0.004,0.211-0.049,0.424-0.154,0.636c-0.105,0.317-0.372,0.889-0.801,1.713
		c-0.428,0.823-0.922,1.754-1.485,2.791s-1.153,2.128-1.769,3.271c-0.615,1.145-1.178,2.207-1.687,3.189
		c-0.51,0.984-1.084,2.113-1.726,3.389c0.384-0.165,1.316-0.628,2.797-1.393c1.48-0.764,3.042-1.605,4.685-2.531
		c1.919-0.98,4.056-2.125,6.412-3.43c-2.291,1.83-4.337,3.473-6.137,4.927c-0.765,0.646-1.541,1.265-2.332,1.856
		c-0.792,0.596-1.502,1.133-2.129,1.619c-0.628,0.483-1.16,0.875-1.599,1.172c-0.438,0.297-0.711,0.474-0.82,0.528
		c-2.141,0.88-4.221,0.573-6.237-0.918c-0.84-0.618-1.36-1.174-1.563-1.672c-0.203-0.496-0.174-1.222,0.088-2.175
		c0.256-1.162,0.707-2.172,1.356-3.025c0.647-0.854,1.324-1.734,2.027-2.644c0.756-1.013,1.471-2.013,2.146-3
		c0.674-0.986,1.389-2.013,2.146-3.079c-0.058-0.051-0.113-0.09-0.169-0.116c-0.057-0.024-0.112-0.089-0.17-0.194
		c-2.149,0.303-4.074,1.033-5.769,2.194c-1.694,1.163-3.181,2.427-4.454,3.792c-1.277,1.365-2.318,2.7-3.125,4.005
		c-0.807,1.306-1.427,2.251-1.859,2.837c-0.053,0.107-0.174,0.269-0.363,0.48c-0.189,0.215-0.52,0.432-0.984,0.648
		c-0.467,0.221-1.113,0.362-1.941,0.43c-0.828,0.068-1.881-0.02-3.156-0.262c-0.111,0.002-0.391-0.177-0.84-0.537
		c-0.448-0.36-0.701-0.594-0.76-0.698c0.104-0.423,0.184-0.687,0.236-0.794c0.053-0.105,0.078-0.211,0.076-0.317
		c5.063-7.726,9.671-14.707,13.821-20.942c1.778-2.664,3.516-5.301,5.213-7.912c1.696-2.61,3.259-4.969,4.688-7.074
		c1.428-2.105,2.613-3.878,3.558-5.316c0.94-1.439,1.549-2.318,1.819-2.64c1.244-1.55,2.521-1.36,3.826,0.565
		c0.452,0.571,0.795,1.146,1.025,1.721C160.459,104.098,160.473,104.914,160.043,105.605z"/>
	<path d="M190.344,142.4c0.002,0.105,0.537-0.088,1.607-0.582c1.07-0.491,2.262-1.092,3.576-1.801
		c1.479-0.763,3.207-1.688,5.18-2.775l0.014,0.869c-1.691,1.24-3.306,2.322-4.838,3.244c-1.313,0.762-2.629,1.455-3.945,2.084
		c-1.315,0.629-2.309,0.845-2.975,0.645c-1-0.245-1.605-0.813-1.814-1.706c-0.209-0.892-0.265-1.655-0.164-2.289
		c-1.361,1.185-2.631,2.207-3.805,3.069c-1.174,0.863-2.145,1.513-2.91,1.947c-0.658,0.326-1.289,0.692-1.89,1.1
		c-0.603,0.404-1.26,0.746-1.974,1.021c-1.646,0.66-3.416,0.797-5.303,0.408c-2.22-0.383-3.951-1.404-5.197-3.07
		c-0.114-0.207-0.229-0.441-0.344-0.705c-0.115-0.26-0.23-0.521-0.347-0.783c-0.131-1.208,0.313-2.547,1.341-4.014
		c1.024-1.467,2.244-2.896,3.659-4.291c1.412-1.395,2.843-2.656,4.289-3.789c1.445-1.131,2.496-1.965,3.149-2.504
		c0.382-0.27,0.984-0.609,1.808-1.02s1.742-0.781,2.761-1.115c1.018-0.332,2.117-0.615,3.305-0.848
		c1.184-0.23,2.33-0.305,3.438-0.219c0.831,0.093,1.35,0.438,1.555,1.041c0.203,0.603,0.477,1.189,0.817,1.763
		c0.058,0.104,0.142,0.209,0.254,0.312c0.281,0.26,0.606,0.74,0.979,1.445c0.371,0.704,0.511,1.585,0.418,2.641
		c0.005,0.211-0.021,0.435-0.069,0.672c-0.052,0.238-0.131,0.49-0.235,0.755c-0.056,0.055-0.082,0.095-0.08,0.12
		c0,0.026-0.027,0.066-0.082,0.119c-0.209,0.688-0.431,1.482-0.664,2.383c-0.232,0.899-0.467,1.772-0.699,2.619
		c-0.234,0.848-0.43,1.576-0.586,2.184C190.418,141.939,190.342,142.296,190.344,142.4z M173.001,142.229
		c0.772-0.064,1.911-0.599,3.415-1.601c1.503-1,3.018-2.157,4.544-3.478c1.524-1.315,2.87-2.629,4.038-3.941
		c1.166-1.311,1.798-2.283,1.898-2.917c-0.611-0.147-1.222-0.216-1.83-0.205c-0.553,0.011-1.158,0.087-1.82,0.229
		c-0.66,0.144-1.293,0.404-1.895,0.783c-0.384,0.271-1.023,0.729-1.927,1.377c-0.899,0.647-1.856,1.375-2.864,2.184
		c-1.011,0.808-1.99,1.654-2.941,2.54c-0.953,0.886-1.672,1.702-2.156,2.448s-0.641,1.354-0.467,1.824
		C171.171,141.945,171.839,142.198,173.001,142.229z"/>
	<path d="M220.77,129.251c-0.432,0.588-1.065,1.468-1.901,2.642c-0.839,1.174-1.688,2.387-2.552,3.64
		c-0.862,1.253-1.645,2.387-2.346,3.397c-0.701,1.014-1.133,1.653-1.295,1.92c1.424-0.867,2.654-1.64,3.693-2.316
		c1.039-0.676,2.188-1.422,3.445-2.232c1.258-0.813,2.447-1.584,3.567-2.314c1.121-0.729,2.119-1.379,2.994-1.947
		s1.449-0.936,1.726-1.098c-0.162,0.268-0.691,0.789-1.592,1.568c-0.898,0.779-1.988,1.721-3.271,2.822
		c-1.279,1.104-2.656,2.259-4.13,3.471c-1.471,1.211-2.877,2.342-4.213,3.391c-1.338,1.052-2.481,1.953-3.438,2.707
		c-0.955,0.756-1.541,1.213-1.76,1.375l-0.734,0.724c-0.109,0.108-0.314,0.229-0.615,0.366c-0.303,0.138-0.658,0.249-1.072,0.335
		c-0.413,0.086-0.813,0.159-1.198,0.219c-0.388,0.06-0.69,0.038-0.914-0.063c-0.278-0.1-0.517-0.254-0.713-0.461
		c-0.197-0.207-0.408-0.439-0.636-0.699c-0.899-0.984-0.948-2.063-0.139-3.237l16.174-23.985c-1.328,0.022-2.406,0.041-3.233,0.057
		c-0.83,0.015-1.563,0.002-2.199-0.04c-0.64-0.041-1.246-0.084-1.828-0.128c-0.582-0.041-1.231-0.057-1.95-0.045
		c-0.277,0.006-0.527-0.068-0.75-0.224c-0.226-0.153-0.447-0.28-0.67-0.383c-0.337-0.204-0.687-0.409-1.05-0.614
		c-0.362-0.203-0.629-0.436-0.799-0.697c-0.513-0.728-0.802-1.434-0.867-2.117c-0.002-0.158,0.119-0.33,0.365-0.52
		c0.244-0.188,0.479-0.285,0.698-0.289c0.441-0.061,1.367-0.13,2.775-0.207c1.41-0.076,2.955-0.156,4.643-0.238
		c1.685-0.082,3.343-0.15,4.974-0.205s2.86-0.063,3.69-0.025c1.187-1.759,2.359-3.451,3.521-5.079
		c1.16-1.626,2.186-3.065,3.076-4.319c0.891-1.252,1.904-2.652,3.039-4.201c0.164-0.107,0.354-0.243,0.572-0.404
		c0.219-0.162,0.383-0.217,0.496-0.167c1.274,0.294,2.36,0.697,3.256,1.207c0.781,0.354,1.176,0.837,1.188,1.44
		c0.01,0.605-0.311,1.229-0.963,1.873c-0.162,0.215-0.475,0.642-0.932,1.281c-0.461,0.641-0.945,1.334-1.457,2.079
		c-0.514,0.747-1.012,1.454-1.498,2.12c-0.486,0.668-0.811,1.16-0.971,1.479c-0.107,0.213-0.24,0.428-0.402,0.641
		c-0.109,0.213-0.256,0.452-0.445,0.719c-0.189,0.268-0.391,0.561-0.605,0.881l5.47-0.334l1.739-0.188
		c0.164-0.004,0.345-0.006,0.539-0.01c0.191-0.004,0.347,0.047,0.459,0.149c0.613,0.412,1.242,0.796,1.888,1.152
		c0.642,0.358,1.241,0.769,1.805,1.231c0.113,0.156,0.228,0.42,0.347,0.784c0.115,0.367,0.121,0.685,0.016,0.948
		c-0.105,0.266-0.268,0.531-0.484,0.799s-0.463,0.43-0.736,0.486c-0.608,0.064-1.146,0.113-1.614,0.146
		c-0.472,0.035-1.188,0.073-2.156,0.116c-0.967,0.044-2.31,0.095-4.021,0.149c-1.713,0.057-4.063,0.162-7.045,0.32
		c-1.402,2.078-2.765,4.092-4.084,6.036C222.322,127.078,221.365,128.45,220.77,129.251z"/>
</g>
<g>
	
		<rect x="-21.501" y="8.01" transform="matrix(-1 -0.0069 0.0069 -1 54.6632 97.6256)" fill="none" width="98.002" height="81.418"/>
	<path d="M23.678,13.193c0.317,0.135,0.413,0.354,0.284,0.656L12.626,34.593c-0.142,0.333-0.372,0.432-0.689,0.297l-2.526-1.072
		c-0.35-0.149-0.454-0.389-0.313-0.722l7.142-22.524c0.128-0.302,0.335-0.393,0.622-0.272L23.678,13.193z"/>
</g>
</svg>
