<?xml version="1.0" encoding="utf-8"?>
<!-- Generator: Adobe Illustrator 16.0.0, SVG Export Plug-In . SVG Version: 6.00 Build 0)  -->
<!DOCTYPE svg PUBLIC "-//W3C//DTD SVG 1.1//EN" "http://www.w3.org/Graphics/SVG/1.1/DTD/svg11.dtd">
<svg version="1.1" id="Layer_1" xmlns="http://www.w3.org/2000/svg" xmlns:xlink="http://www.w3.org/1999/xlink" x="0px" y="0px"
	 width="250px" height="164px" viewBox="0 0 250 164" enable-background="new 0 0 250 164" xml:space="preserve">
<g>
	<rect x="17.079" y="44.218" fill="none" width="153.588" height="112.503"/>
	<path d="M72.627,58.864c0,28.28-24.745,46.055-37.268,51.914c-0.505,0.303-1.01,0.403-1.818,0.403c-0.404,0-0.909-0.505-0.909-1.01
		c0-0.707,0.707-1.313,1.212-1.717c10.504-6.363,26.259-22.927,26.259-46.762c0-17.876-7.575-25.754-15.352-25.754
		c-7.272,0-12.12,6.464-12.12,15.049c0,15.453,9.999,19.088,13.433,19.088c3.535,0,5.555-0.606,6.868-1.212
		c1.111-0.606,1.616-1.111,2.02-1.111c0.404,0,0.808,0.404,0.808,0.909c0,0.303-0.303,0.909-0.505,1.111
		c-2.929,3.131-8.181,4.646-13.332,4.646c-14.544,0-20.604-11.009-20.604-19.493c0-13.634,10.302-23.532,25.855-23.532
		C63.639,31.393,72.627,43.512,72.627,58.864z"/>
	<path d="M87.576,108.757c-1.717-0.909-1.919-1.817-1.919-3.938c0-3.334-0.101-9.393,0.404-12.726
		c0.202-1.01,0.505-1.818,1.111-1.818c0.707,0,0.909,0.606,0.909,1.717c0,10.807,6.666,13.534,13.736,13.534
		c8.08,0,16.665-5.354,16.665-18.483c0-16.16-17.574-22.826-25.553-23.937c-1.212-0.202-1.919-0.707-1.818-2.02l2.323-26.664
		c0.101-1.01,0.808-1.313,1.919-1.313h24.744c2.828,0,4.545-0.101,5.656-0.303c1.11-0.101,1.717-0.404,2.021-0.404
		c0.807,0,1.01,0.404,1.01,1.919c0,2.121-0.304,6.565-1.313,12.928c-0.101,0.606-0.403,1.212-1.11,1.212
		c-0.606,0-0.809-0.606-0.809-1.414c0-2.828-0.707-5.454-8.888-5.454H98.281l-1.414,12.322
		c15.049,2.424,33.431,10.706,33.431,28.279c0,13.433-9.797,28.38-33.229,28.38C93.837,110.574,90.101,109.969,87.576,108.757z"/>
</g>
<g>
	<rect x="88.494" y="102.767" fill="none" width="166.665" height="80.59"/>
	<path fill="#808080" d="M118.291,130.309c0.224,0.099,0.387,0.37,0.485,0.813c0.099,0.445,0.144,0.957,0.137,1.537
		c-0.008,0.58-0.112,1.177-0.311,1.789c-0.2,0.613-0.487,1.138-0.858,1.571c-1.753,0.535-3.261,0.904-4.526,1.106
		c-1.267,0.202-2.538,0.221-3.816,0.055c1.005-1.3,1.705-2.299,2.095-2.998c0.391-0.698,0.627-1.418,0.713-2.159
		c-1.31,0.52-2.882,1.472-4.714,2.853c-1.833,1.382-3.5,2.81-4.997,4.284c-0.056,0.002-0.082,0.03-0.08,0.082
		c-0.481,0.491-1.001,1.051-1.56,1.675c-0.559,0.626-1.064,1.25-1.512,1.871c-0.449,0.622-0.844,1.189-1.186,1.701
		c-0.343,0.514-0.537,0.902-0.582,1.167c0.341,0.252,1.117,0.316,2.331,0.195c1.212-0.121,2.63-0.342,4.251-0.662
		c1.62-0.32,3.349-0.723,5.187-1.209c1.836-0.485,3.578-0.928,5.224-1.329c1.646-0.399,3.087-0.727,4.323-0.98
		c1.236-0.253,2.075-0.361,2.52-0.325c0.002,0.053-0.026,0.08-0.08,0.082c-0.218,0.113-0.817,0.372-1.799,0.774
		c-0.982,0.403-2.142,0.879-3.478,1.426c-1.337,0.548-2.783,1.124-4.338,1.732c-1.556,0.607-3.017,1.172-4.381,1.694
		c-1.366,0.521-2.539,0.985-3.521,1.388c-0.982,0.403-1.583,0.636-1.802,0.695c-1.636,0.689-3.402,0.857-5.294,0.501
		c-2.226-0.344-3.977-1.336-5.25-2.979c-0.119-0.206-0.237-0.439-0.356-0.699c-0.121-0.259-0.24-0.518-0.359-0.778
		c-0.152-1.206,0.27-2.551,1.27-4.036c0.999-1.483,2.193-2.935,3.583-4.354c1.389-1.419,2.796-2.707,4.223-3.863
		c1.425-1.156,2.461-2.009,3.106-2.559c0.377-0.276,0.974-0.627,1.79-1.051s1.728-0.812,2.74-1.163
		c1.011-0.352,2.107-0.652,3.289-0.905c1.181-0.251,2.325-0.344,3.435-0.278c0.833,0.077,1.355,0.415,1.571,1.013
		c0.214,0.599,0.498,1.182,0.85,1.749C116.902,130.147,117.462,130.338,118.291,130.309z"/>
	<path fill="#808080" d="M160.389,107.572c-0.42,0.7-1.061,1.736-1.926,3.11c-0.864,1.374-1.82,2.91-2.868,4.606
		s-2.162,3.448-3.344,5.255c-1.183,1.808-2.271,3.506-3.267,5.094c-0.996,1.59-1.861,2.95-2.597,4.083
		c-0.735,1.132-1.208,1.86-1.417,2.184c0.819-0.292,1.798-0.786,2.936-1.485c1.138-0.698,2.088-1.192,2.854-1.483
		c0.872-0.347,1.742-0.39,2.609-0.131c0.867,0.26,1.591,0.802,2.174,1.624c0.406,0.566,0.745,1.147,1.016,1.743
		c0.27,0.597,0.388,1.238,0.357,1.924c0.007,0.211-0.041,0.424-0.145,0.638c-0.1,0.319-0.355,0.896-0.77,1.727
		c-0.414,0.832-0.893,1.77-1.438,2.816c-0.544,1.047-1.115,2.147-1.71,3.301c-0.597,1.154-1.14,2.228-1.631,3.219
		c-0.491,0.993-1.046,2.132-1.665,3.418c0.381-0.172,1.305-0.651,2.771-1.44s3.014-1.659,4.641-2.613
		c1.9-1.015,4.018-2.195,6.35-3.541c-2.259,1.871-4.275,3.548-6.049,5.033c-0.753,0.658-1.52,1.292-2.3,1.898
		c-0.781,0.607-1.481,1.158-2.101,1.654c-0.619,0.495-1.145,0.896-1.576,1.201c-0.433,0.304-0.703,0.485-0.811,0.542
		c-2.127,0.916-4.211,0.647-6.254-0.81c-0.851-0.603-1.383-1.149-1.593-1.644c-0.212-0.493-0.195-1.219,0.049-2.176
		c0.235-1.167,0.671-2.184,1.304-3.049c0.635-0.865,1.295-1.758,1.982-2.679c0.738-1.025,1.436-2.038,2.094-3.037
		c0.656-0.997,1.353-2.035,2.09-3.116c-0.057-0.05-0.114-0.087-0.17-0.112c-0.057-0.024-0.114-0.088-0.172-0.192
		c-2.146,0.34-4.058,1.104-5.73,2.295c-1.674,1.192-3.137,2.481-4.389,3.869s-2.27,2.741-3.054,4.059
		c-0.784,1.319-1.388,2.275-1.809,2.869c-0.052,0.108-0.171,0.271-0.356,0.487c-0.188,0.218-0.512,0.44-0.973,0.666
		c-0.463,0.228-1.107,0.382-1.935,0.463c-0.827,0.082-1.882,0.014-3.161-0.206c-0.11,0.004-0.393-0.17-0.848-0.523
		c-0.455-0.353-0.713-0.58-0.771-0.685c0.097-0.425,0.17-0.69,0.221-0.798c0.053-0.107,0.076-0.213,0.072-0.319
		c4.928-7.813,9.412-14.873,13.453-21.18c1.732-2.695,3.424-5.363,5.074-8.003s3.172-5.024,4.564-7.155
		c1.391-2.13,2.546-3.923,3.464-5.378c0.917-1.455,1.509-2.345,1.774-2.671c1.217-1.57,2.496-1.403,3.836,0.499
		c0.461,0.564,0.813,1.131,1.055,1.702C160.777,106.057,160.807,106.874,160.389,107.572z"/>
	<path fill="#808080" d="M192.697,144.497c0.004,0.106,0.537-0.098,1.598-0.609c1.061-0.511,2.243-1.132,3.545-1.862
		c1.467-0.789,3.178-1.744,5.129-2.867l0.031,0.868c-1.672,1.271-3.266,2.381-4.781,3.329c-1.301,0.784-2.604,1.502-3.908,2.152
		c-1.306,0.652-2.293,0.884-2.965,0.696c-1.004-0.228-1.618-0.786-1.842-1.675c-0.227-0.888-0.294-1.649-0.205-2.285
		c-1.342,1.207-2.592,2.252-3.75,3.135c-1.16,0.884-2.118,1.55-2.877,1.998c-0.652,0.339-1.275,0.716-1.869,1.132
		c-0.595,0.416-1.246,0.769-1.955,1.057c-1.636,0.689-3.401,0.856-5.295,0.501c-2.226-0.344-3.976-1.336-5.25-2.979
		c-0.118-0.206-0.236-0.438-0.355-0.699c-0.121-0.259-0.24-0.518-0.359-0.777c-0.152-1.207,0.27-2.552,1.27-4.036
		c0.999-1.484,2.193-2.936,3.583-4.354c1.389-1.418,2.796-2.706,4.223-3.863c1.425-1.156,2.462-2.009,3.106-2.559
		c0.377-0.276,0.975-0.627,1.789-1.051c0.815-0.424,1.728-0.812,2.74-1.163c1.011-0.351,2.106-0.652,3.288-0.905
		c1.181-0.251,2.325-0.344,3.435-0.277c0.833,0.077,1.355,0.414,1.571,1.012c0.214,0.6,0.497,1.183,0.85,1.749
		c0.058,0.104,0.145,0.206,0.26,0.308c0.285,0.254,0.619,0.729,1.005,1.427c0.383,0.698,0.538,1.576,0.465,2.632
		c0.008,0.211-0.014,0.436-0.06,0.674c-0.048,0.239-0.122,0.492-0.223,0.759c-0.054,0.056-0.079,0.096-0.079,0.122
		c0.002,0.026-0.025,0.067-0.078,0.121c-0.197,0.692-0.404,1.49-0.622,2.393c-0.218,0.904-0.437,1.782-0.655,2.632
		c-0.219,0.852-0.4,1.583-0.546,2.193C192.765,144.034,192.694,144.393,192.697,144.497z M175.355,144.628
		c0.771-0.078,1.9-0.632,3.387-1.659c1.484-1.026,2.979-2.211,4.482-3.556c1.501-1.343,2.824-2.68,3.969-4.012
		c1.143-1.331,1.758-2.314,1.847-2.95c-0.614-0.137-1.225-0.194-1.832-0.173c-0.554,0.02-1.158,0.107-1.817,0.261
		c-0.658,0.155-1.285,0.428-1.88,0.816c-0.378,0.278-1.012,0.747-1.901,1.41c-0.89,0.664-1.832,1.408-2.827,2.233
		s-1.962,1.689-2.897,2.591c-0.938,0.902-1.641,1.731-2.113,2.485c-0.471,0.755-0.615,1.365-0.434,1.833
		C173.521,144.376,174.193,144.617,175.355,144.628z"/>
	<path fill="#808080" d="M224.264,131.393c-0.424,0.595-1.043,1.486-1.857,2.674c-0.818,1.188-1.646,2.416-2.486,3.683
		c-0.842,1.269-1.604,2.415-2.287,3.439c-0.684,1.026-1.104,1.673-1.26,1.941c1.406-0.892,2.625-1.685,3.652-2.38
		c1.025-0.694,2.16-1.459,3.404-2.293s2.42-1.626,3.529-2.376c1.107-0.75,2.094-1.417,2.959-2.001
		c0.863-0.583,1.432-0.959,1.703-1.126c-0.156,0.27-0.678,0.802-1.563,1.596c-0.885,0.795-1.959,1.756-3.219,2.879
		c-1.262,1.125-2.617,2.305-4.068,3.541s-2.836,2.392-4.154,3.465c-1.318,1.074-2.447,1.997-3.389,2.767
		c-0.941,0.771-1.521,1.239-1.736,1.404l-0.721,0.737c-0.107,0.109-0.311,0.235-0.609,0.377c-0.299,0.143-0.654,0.26-1.066,0.354
		c-0.412,0.093-0.811,0.174-1.195,0.239s-0.691,0.05-0.914-0.047c-0.281-0.096-0.521-0.245-0.721-0.449
		c-0.201-0.203-0.416-0.433-0.648-0.689c-0.918-0.968-0.984-2.047-0.195-3.234l15.754-24.264c-1.328,0.046-2.404,0.084-3.234,0.112
		c-0.828,0.029-1.563,0.029-2.199-0.002c-0.637-0.029-1.246-0.062-1.83-0.095c-0.582-0.031-1.232-0.035-1.949-0.011
		c-0.277,0.01-0.529-0.061-0.756-0.211c-0.227-0.149-0.453-0.272-0.676-0.371c-0.34-0.198-0.693-0.397-1.059-0.596
		c-0.367-0.197-0.637-0.425-0.813-0.683c-0.523-0.72-0.824-1.42-0.904-2.104c-0.004-0.157,0.113-0.332,0.355-0.525
		c0.242-0.192,0.475-0.294,0.695-0.302c0.439-0.066,1.365-0.152,2.771-0.255c1.408-0.101,2.953-0.208,4.637-0.319
		s3.34-0.208,4.971-0.292c1.629-0.083,2.859-0.112,3.689-0.09c1.154-1.779,2.299-3.491,3.432-5.14
		c1.131-1.646,2.133-3.104,3.002-4.373c0.867-1.268,1.855-2.686,2.963-4.254c0.162-0.11,0.352-0.249,0.566-0.415
		c0.215-0.165,0.379-0.223,0.492-0.175c1.281,0.271,2.375,0.655,3.277,1.15c0.787,0.342,1.191,0.815,1.211,1.42
		c0.021,0.605-0.289,1.235-0.93,1.891c-0.158,0.216-0.463,0.648-0.908,1.296c-0.449,0.648-0.922,1.351-1.422,2.105
		c-0.5,0.756-0.986,1.471-1.459,2.146c-0.475,0.676-0.789,1.174-0.945,1.495c-0.104,0.215-0.232,0.431-0.393,0.646
		c-0.104,0.215-0.246,0.457-0.43,0.727c-0.186,0.271-0.383,0.566-0.592,0.89l5.463-0.428l1.734-0.219
		c0.166-0.006,0.346-0.012,0.539-0.019s0.348,0.041,0.463,0.142c0.621,0.4,1.258,0.773,1.906,1.119
		c0.646,0.347,1.256,0.747,1.826,1.201c0.115,0.154,0.234,0.414,0.359,0.778c0.123,0.364,0.133,0.681,0.033,0.947
		c-0.104,0.268-0.26,0.536-0.471,0.807c-0.211,0.271-0.455,0.438-0.729,0.5c-0.607,0.074-1.145,0.133-1.613,0.175
		c-0.469,0.043-1.188,0.095-2.152,0.154c-0.967,0.061-2.307,0.134-4.018,0.219c-1.713,0.087-4.059,0.234-7.039,0.443
		c-1.367,2.104-2.693,4.14-3.979,6.107C225.775,129.193,224.844,130.582,224.264,131.393z"/>
</g>
<g>
	<rect x="89.994" y="100.47" fill="none" width="166.665" height="80.59"/>
	<path d="M118.916,128.273c0.222,0.103,0.38,0.376,0.471,0.821c0.091,0.447,0.127,0.96,0.11,1.539
		c-0.019,0.581-0.132,1.176-0.342,1.784c-0.211,0.609-0.506,1.128-0.885,1.556c-1.762,0.505-3.276,0.848-4.545,1.027
		c-1.27,0.181-2.542,0.177-3.817-0.012c1.028-1.282,1.744-2.269,2.147-2.961c0.403-0.691,0.652-1.406,0.751-2.146
		c-1.319,0.497-2.908,1.421-4.764,2.77c-1.857,1.35-3.548,2.748-5.07,4.197c-0.056,0.001-0.083,0.028-0.082,0.08
		c-0.489,0.482-1.019,1.032-1.589,1.647c-0.57,0.616-1.085,1.231-1.544,1.845c-0.46,0.614-0.865,1.174-1.215,1.68
		c-0.352,0.508-0.552,0.893-0.602,1.156c0.336,0.259,1.111,0.337,2.327,0.236c1.214-0.101,2.636-0.296,4.263-0.588
		c1.625-0.292,3.361-0.664,5.207-1.118c1.844-0.453,3.594-0.865,5.247-1.237c1.653-0.371,3.099-0.673,4.34-0.905
		c1.24-0.231,2.081-0.325,2.525-0.281c0.001,0.053-0.027,0.079-0.082,0.08c-0.22,0.11-0.824,0.358-1.813,0.743
		c-0.989,0.387-2.157,0.841-3.502,1.365c-1.347,0.524-2.802,1.075-4.368,1.656c-1.566,0.58-3.037,1.119-4.41,1.617
		c-1.375,0.498-2.556,0.941-3.544,1.326c-0.989,0.387-1.594,0.608-1.813,0.664c-1.648,0.661-3.416,0.798-5.303,0.408
		c-2.219-0.382-3.952-1.405-5.197-3.069c-0.115-0.208-0.229-0.443-0.344-0.705c-0.116-0.261-0.231-0.522-0.346-0.784
		c-0.131-1.209,0.314-2.546,1.34-4.014c1.024-1.466,2.244-2.896,3.658-4.291c1.414-1.394,2.843-2.657,4.29-3.788
		c1.445-1.132,2.496-1.966,3.15-2.505c0.382-0.27,0.985-0.609,1.808-1.019c0.822-0.41,1.741-0.781,2.76-1.115
		c1.017-0.334,2.118-0.616,3.304-0.848c1.185-0.23,2.331-0.304,3.439-0.218c0.831,0.091,1.348,0.438,1.553,1.039
		c0.204,0.603,0.477,1.19,0.819,1.764C117.529,128.088,118.086,128.288,118.916,128.273z"/>
	<path d="M160.043,105.605c-0.432,0.692-1.09,1.718-1.979,3.076c-0.889,1.359-1.873,2.878-2.949,4.556
		c-1.078,1.678-2.222,3.41-3.436,5.195c-1.213,1.787-2.332,3.466-3.354,5.036c-1.024,1.572-1.913,2.918-2.667,4.037
		c-0.756,1.119-1.241,1.839-1.456,2.159c0.825-0.277,1.812-0.756,2.962-1.435c1.149-0.679,2.108-1.155,2.879-1.434
		c0.878-0.331,1.748-0.358,2.611-0.085c0.861,0.275,1.576,0.829,2.145,1.661c0.396,0.574,0.726,1.16,0.984,1.761
		c0.26,0.602,0.367,1.246,0.324,1.931c0.004,0.211-0.048,0.423-0.154,0.635c-0.105,0.317-0.372,0.889-0.8,1.713
		c-0.429,0.824-0.923,1.754-1.486,2.791c-0.563,1.037-1.153,2.128-1.769,3.271c-0.615,1.144-1.178,2.207-1.686,3.189
		c-0.51,0.984-1.084,2.113-1.725,3.389c0.383-0.165,1.316-0.628,2.796-1.393c1.48-0.763,3.042-1.605,4.685-2.531
		c1.918-0.981,4.056-2.125,6.412-3.43c-2.291,1.831-4.337,3.473-6.137,4.927c-0.764,0.646-1.541,1.265-2.332,1.857
		c-0.792,0.595-1.502,1.133-2.129,1.618c-0.628,0.484-1.16,0.875-1.598,1.173c-0.438,0.297-0.711,0.473-0.82,0.528
		c-2.141,0.879-4.221,0.573-6.238-0.918c-0.84-0.618-1.361-1.174-1.563-1.672c-0.203-0.496-0.175-1.222,0.087-2.175
		c0.256-1.162,0.708-2.171,1.357-3.025c0.648-0.854,1.324-1.734,2.027-2.644c0.756-1.013,1.471-2.013,2.146-3
		c0.674-0.986,1.389-2.012,2.145-3.079c-0.057-0.051-0.113-0.09-0.168-0.116c-0.057-0.024-0.113-0.089-0.17-0.194
		c-2.15,0.302-4.075,1.033-5.769,2.194c-1.694,1.163-3.181,2.426-4.455,3.792c-1.276,1.365-2.317,2.7-3.124,4.005
		c-0.807,1.306-1.427,2.251-1.859,2.837c-0.053,0.107-0.175,0.268-0.364,0.48c-0.19,0.215-0.519,0.432-0.984,0.649
		c-0.467,0.22-1.114,0.362-1.942,0.429c-0.828,0.068-1.881-0.019-3.156-0.261c-0.111,0.002-0.391-0.177-0.84-0.538
		c-0.448-0.36-0.701-0.593-0.759-0.698c0.104-0.423,0.183-0.687,0.235-0.794c0.054-0.105,0.079-0.211,0.077-0.317
		c5.063-7.726,9.671-14.707,13.821-20.942c1.779-2.664,3.516-5.302,5.213-7.913c1.697-2.61,3.259-4.968,4.688-7.074
		c1.428-2.105,2.614-3.878,3.558-5.316c0.941-1.439,1.549-2.318,1.82-2.64c1.244-1.549,2.52-1.36,3.826,0.565
		c0.452,0.572,0.794,1.146,1.025,1.721C160.459,104.097,160.473,104.914,160.043,105.605z"/>
	<path d="M190.344,142.401c0.002,0.105,0.537-0.089,1.607-0.582c1.07-0.492,2.262-1.092,3.577-1.801
		c1.479-0.763,3.206-1.688,5.179-2.776l0.014,0.869c-1.692,1.241-3.306,2.323-4.838,3.245c-1.313,0.761-2.629,1.455-3.945,2.083
		c-1.316,0.63-2.309,0.845-2.975,0.645c-1-0.245-1.605-0.813-1.814-1.706c-0.209-0.892-0.265-1.655-0.164-2.289
		c-1.362,1.184-2.631,2.207-3.805,3.069c-1.174,0.863-2.145,1.513-2.91,1.947c-0.658,0.327-1.289,0.693-1.89,1.1
		c-0.603,0.405-1.26,0.746-1.974,1.021c-1.646,0.661-3.416,0.797-5.302,0.409c-2.22-0.383-3.952-1.405-5.197-3.07
		c-0.115-0.208-0.229-0.442-0.345-0.705c-0.115-0.261-0.23-0.521-0.346-0.784c-0.131-1.208,0.314-2.546,1.341-4.013
		c1.024-1.467,2.244-2.896,3.659-4.291c1.412-1.395,2.842-2.657,4.289-3.789c1.445-1.131,2.496-1.966,3.15-2.504
		c0.381-0.27,0.984-0.61,1.807-1.02s1.742-0.781,2.76-1.115c1.018-0.333,2.118-0.615,3.305-0.848c1.184-0.23,2.33-0.304,3.438-0.218
		c0.831,0.092,1.349,0.438,1.554,1.04c0.203,0.603,0.477,1.19,0.818,1.763c0.057,0.105,0.141,0.209,0.254,0.312
		c0.281,0.26,0.607,0.74,0.979,1.445c0.372,0.704,0.511,1.585,0.419,2.64c0.004,0.211-0.021,0.435-0.07,0.673
		c-0.052,0.237-0.131,0.489-0.236,0.754c-0.055,0.055-0.081,0.095-0.08,0.12c0,0.027-0.027,0.067-0.082,0.12
		c-0.209,0.688-0.43,1.482-0.663,2.382c-0.233,0.9-0.467,1.773-0.7,2.62c-0.234,0.847-0.43,1.575-0.585,2.183
		C190.418,141.939,190.342,142.296,190.344,142.401z M173.001,142.229c0.772-0.065,1.911-0.599,3.415-1.601
		c1.503-1,3.018-2.158,4.544-3.477c1.524-1.316,2.87-2.63,4.038-3.942c1.166-1.311,1.798-2.283,1.898-2.917
		c-0.611-0.147-1.221-0.216-1.829-0.205c-0.554,0.01-1.159,0.087-1.821,0.229c-0.66,0.144-1.293,0.405-1.895,0.784
		c-0.383,0.271-1.023,0.729-1.926,1.376c-0.9,0.648-1.856,1.376-2.865,2.184c-1.01,0.808-1.99,1.654-2.941,2.54
		c-0.953,0.886-1.672,1.702-2.156,2.448s-0.641,1.354-0.467,1.825C171.171,141.945,171.839,142.198,173.001,142.229z"/>
	<path d="M220.77,129.251c-0.432,0.588-1.066,1.468-1.902,2.641c-0.838,1.174-1.688,2.387-2.551,3.64s-1.645,2.387-2.346,3.398
		c-0.701,1.014-1.133,1.653-1.295,1.919c1.424-0.867,2.654-1.639,3.693-2.316c1.039-0.676,2.188-1.421,3.445-2.232
		c1.258-0.813,2.447-1.584,3.568-2.314s2.119-1.38,2.994-1.948s1.449-0.935,1.725-1.097c-0.162,0.267-0.691,0.789-1.592,1.568
		c-0.898,0.779-1.988,1.721-3.27,2.822c-1.279,1.103-2.656,2.259-4.129,3.47c-1.471,1.211-2.877,2.342-4.213,3.392
		c-1.338,1.051-2.482,1.953-3.438,2.707c-0.955,0.755-1.541,1.212-1.76,1.374l-0.734,0.724c-0.109,0.108-0.314,0.23-0.615,0.366
		c-0.303,0.138-0.658,0.249-1.072,0.335s-0.814,0.16-1.199,0.219c-0.387,0.059-0.691,0.038-0.914-0.063
		c-0.279-0.1-0.516-0.254-0.713-0.461s-0.408-0.44-0.635-0.7c-0.9-0.984-0.949-2.063-0.139-3.237l16.174-23.986
		c-1.328,0.023-2.406,0.042-3.234,0.057c-0.83,0.015-1.564,0.002-2.199-0.04c-0.639-0.041-1.246-0.084-1.828-0.127
		c-0.582-0.041-1.232-0.057-1.951-0.045c-0.277,0.005-0.527-0.069-0.75-0.224c-0.225-0.154-0.447-0.281-0.67-0.383
		c-0.336-0.204-0.686-0.409-1.049-0.614c-0.363-0.203-0.629-0.436-0.799-0.697c-0.512-0.728-0.801-1.434-0.867-2.118
		c-0.002-0.158,0.119-0.33,0.365-0.52c0.244-0.188,0.479-0.285,0.699-0.289c0.441-0.06,1.367-0.129,2.775-0.206
		c1.41-0.077,2.955-0.157,4.643-0.239c1.684-0.081,3.342-0.15,4.973-0.205s2.861-0.063,3.691-0.025
		c1.186-1.759,2.359-3.451,3.521-5.079c1.16-1.626,2.186-3.066,3.076-4.32c0.891-1.252,1.904-2.652,3.039-4.201
		c0.164-0.107,0.354-0.243,0.572-0.404c0.219-0.162,0.383-0.217,0.496-0.167c1.275,0.294,2.361,0.697,3.256,1.207
		c0.781,0.355,1.176,0.837,1.188,1.441c0.01,0.605-0.311,1.229-0.963,1.873c-0.162,0.214-0.475,0.641-0.932,1.281
		c-0.461,0.64-0.945,1.333-1.457,2.079c-0.514,0.747-1.012,1.454-1.498,2.12c-0.486,0.668-0.811,1.16-0.971,1.479
		c-0.107,0.213-0.24,0.427-0.402,0.64c-0.109,0.213-0.256,0.452-0.445,0.719c-0.189,0.268-0.391,0.56-0.605,0.88l5.469-0.333
		l1.74-0.188c0.164-0.003,0.344-0.006,0.539-0.009c0.191-0.004,0.346,0.047,0.459,0.149c0.613,0.412,1.242,0.796,1.887,1.152
		c0.641,0.358,1.242,0.769,1.805,1.232c0.113,0.156,0.227,0.419,0.346,0.784c0.115,0.367,0.121,0.684,0.016,0.948
		c-0.105,0.266-0.268,0.532-0.484,0.799c-0.217,0.268-0.463,0.43-0.736,0.486c-0.609,0.064-1.146,0.113-1.615,0.147
		c-0.471,0.035-1.189,0.073-2.156,0.116c-0.967,0.044-2.309,0.094-4.021,0.149c-1.713,0.057-4.063,0.163-7.045,0.32
		c-1.402,2.079-2.764,4.092-4.084,6.037C222.322,127.078,221.365,128.45,220.77,129.251z"/>
</g>
<g>
	<rect x="-21.5" y="8.009" transform="matrix(1 0.0069 -0.0069 1 0.3361 -0.1882)" fill="none" width="98" height="81.416"/>
	<path d="M23.678,13.193c0.317,0.135,0.413,0.354,0.284,0.656L12.626,34.593c-0.142,0.333-0.372,0.432-0.689,0.297l-2.526-1.072
		c-0.35-0.149-0.454-0.389-0.313-0.722l7.142-22.524c0.128-0.302,0.335-0.393,0.622-0.272L23.678,13.193z"/>
</g>
<g>
</g>
<g>
</g>
<g>
</g>
<g>
</g>
<g>
</g>
<g>
</g>
<g>
</g>
<g>
</g>
<g>
</g>
<g>
</g>
<g>
</g>
<g>
</g>
<g>
</g>
<g>
</g>
<g>
</g>
</svg>
