<?xml version="1.0" encoding="utf-8"?>
<!-- Generator: Adobe Illustrator 16.0.0, SVG Export Plug-In . SVG Version: 6.00 Build 0)  -->
<!DOCTYPE svg PUBLIC "-//W3C//DTD SVG 1.1//EN" "http://www.w3.org/Graphics/SVG/1.1/DTD/svg11.dtd">
<svg version="1.1" xmlns="http://www.w3.org/2000/svg" xmlns:xlink="http://www.w3.org/1999/xlink" x="0px" y="0px" width="151px"
	 height="193px" viewBox="0 0 151 193" enable-background="new 0 0 151 193" xml:space="preserve">
<g id="Layer_1">
	<circle cx="51.688" cy="60.938" r="4.813"/>
	<circle cx="100.688" cy="60.938" r="4.813"/>
	<path fill="none" stroke="#000000" stroke-width="4" stroke-miterlimit="10" d="M56.5,71.375c0,0,19.688,18.708,39.375,0"/>
</g>
<g id="Layer_2">
	<rect x="0.5" y="12.5" stroke="#000000" stroke-miterlimit="10" width="6" height="151"/>
	<rect x="6.5" y="163.5" stroke="#000000" stroke-miterlimit="10" width="6" height="19"/>
	<rect x="12.5" y="182.5" stroke="#000000" stroke-miterlimit="10" width="4" height="10"/>
	<rect x="12.5" y="163.5" stroke="#000000" stroke-miterlimit="10" width="126" height="5"/>
	<rect x="138.5" y="163.5" stroke="#000000" stroke-miterlimit="10" width="6" height="19"/>
	<rect x="16.5" y="187.5" stroke="#000000" stroke-miterlimit="10" width="118" height="5"/>
	<rect x="134.5" y="182.5" stroke="#000000" stroke-miterlimit="10" width="4" height="10"/>
	<rect x="144.5" y="12.5" stroke="#000000" stroke-miterlimit="10" width="6" height="151"/>
	<rect x="138.5" y="6.5" stroke="#000000" stroke-miterlimit="10" width="6" height="6"/>
	<rect x="6.5" y="6.5" stroke="#000000" stroke-miterlimit="10" width="6" height="6"/>
	<rect x="12.5" y="0.5" stroke="#000000" stroke-miterlimit="10" width="126" height="6"/>
	<rect x="24.5" y="18.5" stroke="#000000" stroke-miterlimit="10" width="103" height="6"/>
	<rect x="18.5" y="24.5" stroke="#000000" stroke-miterlimit="10" width="6" height="78"/>
	<rect x="126.5" y="24.5" stroke="#000000" stroke-miterlimit="10" width="6" height="78"/>
	<rect x="24.5" y="102.5" stroke="#000000" stroke-miterlimit="10" width="102" height="6"/>
	<rect x="61.5" y="115.5" stroke="#000000" stroke-miterlimit="10" width="66" height="7"/>
	<g>
		<rect x="106.5" y="130.5" stroke="#000000" stroke-miterlimit="10" width="8" height="23"/>
		<rect x="98.5" y="138.5" stroke="#000000" stroke-miterlimit="10" width="23" height="8"/>
	</g>
	<rect x="18.5" y="115.5" stroke="#000000" stroke-miterlimit="10" width="13" height="7"/>
	<polygon fill="none" stroke="#000000" stroke-width="4" stroke-miterlimit="10" points="47.877,133.71 37.084,150 58.469,150 	"/>
	<g>
	</g>
	<g>
	</g>
	<g>
	</g>
	<g>
	</g>
	<g>
	</g>
	<g>
	</g>
	<g>
	</g>
	<g>
	</g>
	<g>
	</g>
	<g>
	</g>
	<g>
	</g>
	<g>
	</g>
	<g>
	</g>
	<g>
	</g>
	<g>
	</g>
</g>
</svg>
