<?xml version="1.0" encoding="utf-8"?>
<!-- Generator: Adobe Illustrator 16.0.0, SVG Export Plug-In . SVG Version: 6.00 Build 0)  -->
<!DOCTYPE svg PUBLIC "-//W3C//DTD SVG 1.1//EN" "http://www.w3.org/Graphics/SVG/1.1/DTD/svg11.dtd">
<svg version="1.1" id="Layer_1" xmlns="http://www.w3.org/2000/svg" xmlns:xlink="http://www.w3.org/1999/xlink" x="0px" y="0px"
	 width="250px" height="164px" viewBox="0 0 250 164" enable-background="new 0 0 250 164" xml:space="preserve">
<g>
	<rect x="7.543" y="40.134" fill="none" width="249.998" height="120.885"/>
	<path fill="#808080" d="M52.238,81.446c0.336,0.148,0.58,0.554,0.727,1.22c0.148,0.667,0.216,1.436,0.205,2.305
		c-0.012,0.871-0.167,1.766-0.466,2.684c-0.301,0.92-0.73,1.706-1.287,2.357c-2.629,0.803-4.892,1.356-6.79,1.66
		c-1.9,0.303-3.807,0.331-5.725,0.081c1.508-1.95,2.557-3.448,3.143-4.497c0.586-1.047,0.941-2.126,1.069-3.239
		c-1.964,0.78-4.323,2.208-7.071,4.278c-2.75,2.073-5.25,4.215-7.495,6.427c-0.083,0.003-0.123,0.045-0.12,0.123
		c-0.722,0.736-1.501,1.575-2.34,2.512c-0.838,0.938-1.596,1.875-2.268,2.807c-0.673,0.933-1.266,1.784-1.778,2.552
		c-0.514,0.771-0.805,1.354-0.873,1.75c0.511,0.379,1.676,0.475,3.496,0.293c1.818-0.182,3.945-0.512,6.377-0.994
		c2.43-0.479,5.024-1.082,7.78-1.813c2.754-0.729,5.367-1.392,7.836-1.993c2.469-0.599,4.631-1.09,6.485-1.472
		c1.854-0.379,3.113-0.542,3.78-0.487c0.003,0.079-0.039,0.12-0.12,0.122c-0.327,0.172-1.226,0.559-2.699,1.162
		c-1.473,0.605-3.212,1.318-5.216,2.139c-2.006,0.822-4.174,1.688-6.508,2.599s-4.526,1.759-6.572,2.542
		c-2.048,0.783-3.808,1.478-5.281,2.081c-1.473,0.605-2.375,0.954-2.703,1.043c-2.454,1.034-5.102,1.286-7.942,0.752
		c-3.338-0.515-5.964-2.004-7.875-4.468c-0.178-0.309-0.355-0.658-0.535-1.049c-0.181-0.389-0.359-0.777-0.539-1.167
		c-0.229-1.81,0.405-3.827,1.905-6.054c1.498-2.226,3.29-4.402,5.375-6.532c2.083-2.127,4.194-4.06,6.334-5.794
		c2.137-1.734,3.692-3.013,4.659-3.838c0.565-0.414,1.461-0.94,2.684-1.576c1.223-0.636,2.592-1.217,4.11-1.744
		c1.517-0.527,3.16-0.979,4.933-1.358c1.771-0.377,3.488-0.517,5.152-0.417c1.249,0.116,2.033,0.622,2.356,1.519
		c0.321,0.898,0.747,1.773,1.274,2.624C50.154,81.204,50.995,81.489,52.238,81.446z"/>
	<path fill="#808080" d="M115.384,47.341c-0.629,1.05-1.59,2.605-2.887,4.666c-1.298,2.061-2.733,4.364-4.303,6.909
		c-1.572,2.545-3.243,5.173-5.016,7.882c-1.773,2.711-3.407,5.258-4.9,7.641c-1.494,2.385-2.792,4.425-3.895,6.124
		c-1.104,1.699-1.813,2.791-2.126,3.276c1.229-0.438,2.698-1.18,4.404-2.229c1.707-1.047,3.132-1.788,4.28-2.225
		c1.309-0.52,2.614-0.584,3.915-0.196c1.3,0.39,2.386,1.203,3.26,2.436c0.609,0.85,1.119,1.721,1.523,2.615
		c0.405,0.896,0.582,1.858,0.536,2.886c0.011,0.316-0.061,0.636-0.215,0.956c-0.15,0.479-0.535,1.344-1.155,2.59
		c-0.622,1.248-1.339,2.655-2.156,4.225c-0.816,1.57-1.673,3.221-2.566,4.951c-0.895,1.732-1.71,3.342-2.446,4.828
		c-0.738,1.49-1.569,3.197-2.498,5.127c0.571-0.257,1.958-0.977,4.158-2.16s4.52-2.488,6.96-3.92
		c2.851-1.521,6.026-3.293,9.525-5.313c-3.388,2.807-6.413,5.323-9.074,7.551c-1.128,0.987-2.278,1.938-3.449,2.848
		c-1.172,0.911-2.223,1.737-3.15,2.48c-0.929,0.744-1.717,1.344-2.365,1.803c-0.649,0.455-1.054,0.728-1.217,0.813
		c-3.189,1.375-6.315,0.971-9.38-1.213c-1.276-0.904-2.073-1.726-2.389-2.467c-0.318-0.738-0.293-1.827,0.073-3.264
		c0.353-1.75,1.006-3.275,1.957-4.573c0.951-1.297,1.941-2.636,2.973-4.017c1.107-1.539,2.153-3.058,3.14-4.557
		c0.984-1.496,2.029-3.053,3.136-4.674c-0.086-0.075-0.172-0.131-0.255-0.169c-0.085-0.036-0.172-0.131-0.259-0.288
		c-3.219,0.509-6.085,1.656-8.595,3.442c-2.511,1.789-4.707,3.722-6.583,5.803c-1.878,2.081-3.405,4.112-4.581,6.089
		c-1.176,1.979-2.081,3.413-2.713,4.304c-0.078,0.162-0.256,0.405-0.535,0.73c-0.28,0.327-0.767,0.66-1.459,0.999
		c-0.694,0.342-1.661,0.573-2.901,0.694c-1.241,0.123-2.822,0.021-4.742-0.309c-0.165,0.006-0.588-0.255-1.272-0.786
		c-0.682-0.527-1.067-0.869-1.156-1.025c0.145-0.638,0.256-1.036,0.332-1.198c0.078-0.16,0.114-0.319,0.108-0.478
		c7.392-11.719,14.118-22.311,20.18-31.771c2.598-4.042,5.135-8.044,7.611-12.004c2.476-3.958,4.758-7.536,6.846-10.733
		c2.086-3.194,3.819-5.884,5.196-8.066c1.375-2.182,2.262-3.518,2.662-4.006c1.826-2.355,3.743-2.105,5.753,0.748
		c0.693,0.846,1.221,1.697,1.583,2.553C115.968,45.068,116.011,46.293,115.384,47.341z"/>
	<path fill="#808080" d="M163.848,102.729c0.006,0.158,0.805-0.147,2.396-0.914c1.592-0.768,3.364-1.698,5.318-2.795
		c2.199-1.183,4.764-2.615,7.693-4.3l0.045,1.303c-2.507,1.907-4.897,3.571-7.171,4.993c-1.951,1.176-3.905,2.252-5.863,3.229
		c-1.958,0.979-3.439,1.326-4.445,1.045c-1.507-0.342-2.429-1.18-2.765-2.512c-0.338-1.332-0.44-2.475-0.307-3.429
		c-2.012,1.81-3.887,3.378-5.625,4.702c-1.739,1.326-3.178,2.325-4.314,2.996c-0.979,0.509-1.914,1.075-2.805,1.699
		c-0.893,0.624-1.87,1.152-2.933,1.584c-2.454,1.035-5.103,1.285-7.942,0.752c-3.338-0.516-5.964-2.004-7.875-4.468
		c-0.178-0.309-0.355-0.658-0.534-1.048c-0.181-0.389-0.36-0.777-0.539-1.168c-0.229-1.809,0.405-3.826,1.905-6.054
		c1.498-2.226,3.289-4.402,5.375-6.532c2.082-2.127,4.193-4.059,6.334-5.794c2.137-1.734,3.691-3.014,4.658-3.838
		c0.566-0.415,1.461-0.94,2.685-1.576c1.223-0.636,2.591-1.217,4.11-1.745c1.516-0.527,3.16-0.979,4.932-1.358
		c1.771-0.376,3.488-0.516,5.152-0.417c1.25,0.116,2.033,0.622,2.356,1.519c0.321,0.898,0.747,1.773,1.274,2.624
		c0.088,0.156,0.217,0.309,0.39,0.46c0.428,0.381,0.929,1.094,1.507,2.141c0.575,1.047,0.808,2.363,0.697,3.948
		c0.012,0.316-0.02,0.653-0.089,1.011c-0.071,0.358-0.183,0.738-0.333,1.138c-0.081,0.083-0.12,0.143-0.119,0.182
		c0.002,0.041-0.039,0.102-0.117,0.182c-0.297,1.039-0.607,2.235-0.934,3.589c-0.326,1.356-0.653,2.672-0.982,3.947
		c-0.329,1.277-0.602,2.375-0.818,3.29C163.948,102.033,163.843,102.57,163.848,102.729z M137.834,102.925
		c1.158-0.118,2.85-0.948,5.08-2.489c2.229-1.54,4.47-3.316,6.724-5.333c2.253-2.015,4.237-4.02,5.952-6.018
		c1.715-1.996,2.638-3.471,2.771-4.425c-0.921-0.205-1.836-0.292-2.748-0.26c-0.829,0.029-1.736,0.161-2.725,0.392
		c-0.988,0.233-1.93,0.642-2.821,1.225c-0.567,0.417-1.517,1.12-2.852,2.115s-2.749,2.112-4.241,3.35
		c-1.493,1.238-2.941,2.534-4.346,3.887c-1.406,1.353-2.462,2.597-3.17,3.727c-0.707,1.133-0.924,2.048-0.65,2.75
		S136.091,102.908,137.834,102.925z"/>
	<path fill="#808080" d="M211.195,83.072c-0.635,0.893-1.563,2.229-2.786,4.01c-1.226,1.782-2.469,3.625-3.729,5.525
		c-1.263,1.902-2.406,3.623-3.431,5.159c-1.025,1.538-1.655,2.509-1.891,2.911c2.111-1.336,3.937-2.527,5.479-3.57
		c1.539-1.041,3.242-2.188,5.108-3.439c1.865-1.25,3.629-2.438,5.292-3.564c1.66-1.125,3.141-2.125,4.439-3
		c1.296-0.875,2.147-1.439,2.555-1.69c-0.234,0.404-1.016,1.203-2.344,2.394c-1.328,1.193-2.938,2.634-4.829,4.319
		c-1.893,1.687-3.926,3.457-6.102,5.311c-2.177,1.855-4.254,3.588-6.23,5.198c-1.979,1.61-3.674,2.995-5.084,4.149
		c-1.413,1.158-2.281,1.858-2.604,2.107l-1.082,1.104c-0.161,0.165-0.466,0.354-0.914,0.565c-0.449,0.214-0.982,0.391-1.6,0.53
		c-0.618,0.14-1.217,0.261-1.793,0.358c-0.578,0.099-1.036,0.076-1.372-0.07c-0.421-0.143-0.781-0.367-1.082-0.674
		c-0.3-0.305-0.623-0.648-0.97-1.033c-1.377-1.452-1.477-3.07-0.294-4.852l23.63-36.396c-1.99,0.069-3.606,0.126-4.85,0.169
		c-1.244,0.043-2.345,0.043-3.3-0.003c-0.957-0.044-1.871-0.092-2.744-0.142c-0.873-0.047-1.85-0.054-2.926-0.016
		c-0.416,0.015-0.793-0.091-1.132-0.316c-0.341-0.225-0.68-0.41-1.016-0.557c-0.509-0.297-1.038-0.596-1.588-0.894
		c-0.551-0.295-0.955-0.637-1.218-1.024c-0.785-1.079-1.238-2.13-1.355-3.154c-0.008-0.237,0.169-0.499,0.532-0.789
		c0.364-0.289,0.711-0.44,1.043-0.452c0.66-0.101,2.046-0.229,4.157-0.382c2.111-0.151,4.429-0.312,6.955-0.48
		c2.525-0.166,5.011-0.312,7.455-0.438c2.443-0.124,4.289-0.168,5.536-0.134c1.731-2.669,3.446-5.237,5.146-7.709
		c1.697-2.47,3.198-4.656,4.502-6.56c1.303-1.902,2.785-4.029,4.445-6.38c0.243-0.166,0.526-0.374,0.85-0.623
		c0.322-0.248,0.568-0.334,0.738-0.263c1.923,0.407,3.562,0.983,4.916,1.726c1.179,0.513,1.785,1.223,1.817,2.13
		c0.031,0.909-0.434,1.853-1.396,2.835c-0.237,0.325-0.693,0.973-1.363,1.945c-0.673,0.972-1.383,2.025-2.131,3.157
		c-0.75,1.134-1.479,2.206-2.191,3.219c-0.711,1.014-1.184,1.76-1.415,2.243c-0.156,0.322-0.352,0.646-0.589,0.969
		c-0.156,0.322-0.371,0.686-0.646,1.09c-0.278,0.406-0.573,0.85-0.888,1.335l8.195-0.642l2.603-0.328
		c0.249-0.009,0.517-0.018,0.809-0.028c0.289-0.01,0.52,0.062,0.692,0.213c0.933,0.601,1.887,1.161,2.859,1.679
		c0.972,0.52,1.886,1.12,2.74,1.802c0.173,0.231,0.352,0.621,0.538,1.167c0.185,0.547,0.201,1.021,0.05,1.421
		c-0.153,0.402-0.388,0.805-0.705,1.21c-0.318,0.408-0.683,0.657-1.094,0.75c-0.91,0.111-1.717,0.199-2.419,0.262
		c-0.704,0.065-1.78,0.142-3.229,0.231c-1.45,0.091-3.46,0.201-6.027,0.329c-2.568,0.13-6.088,0.352-10.559,0.665
		c-2.05,3.155-4.038,6.208-5.968,9.161C213.465,79.773,212.064,81.856,211.195,83.072z"/>
</g>
<g>
	<rect x="9.793" y="36.688" fill="none" width="249.998" height="120.885"/>
	<path d="M53.175,78.394c0.333,0.153,0.57,0.564,0.706,1.232c0.136,0.67,0.19,1.439,0.165,2.309
		c-0.028,0.871-0.199,1.763-0.514,2.675c-0.316,0.915-0.76,1.693-1.328,2.334c-2.643,0.757-4.915,1.271-6.817,1.541
		c-1.905,0.271-3.813,0.265-5.725-0.019c1.542-1.923,2.616-3.403,3.22-4.441c0.604-1.036,0.978-2.109,1.126-3.22
		c-1.978,0.746-4.361,2.132-7.146,4.155c-2.786,2.024-5.322,4.122-7.605,6.295c-0.083,0.001-0.124,0.043-0.122,0.121
		c-0.734,0.724-1.529,1.549-2.384,2.471c-0.855,0.924-1.628,1.847-2.316,2.766c-0.69,0.922-1.297,1.762-1.823,2.521
		c-0.527,0.761-0.829,1.338-0.903,1.734c0.505,0.387,1.667,0.504,3.491,0.354c1.821-0.15,3.953-0.443,6.394-0.883
		c2.438-0.437,5.042-0.994,7.811-1.676c2.767-0.68,5.391-1.299,7.87-1.856c2.479-0.556,4.649-1.009,6.509-1.358
		c1.861-0.348,3.122-0.488,3.788-0.422c0.001,0.08-0.041,0.119-0.122,0.121c-0.33,0.165-1.235,0.537-2.718,1.114
		c-1.483,0.579-3.235,1.262-5.253,2.048c-2.02,0.787-4.203,1.613-6.552,2.484c-2.35,0.87-4.556,1.68-6.616,2.426
		c-2.062,0.748-3.833,1.412-5.316,1.99c-1.483,0.579-2.391,0.912-2.72,0.995c-2.472,0.991-5.124,1.196-7.954,0.612
		c-3.329-0.572-5.929-2.107-7.796-4.604c-0.173-0.313-0.344-0.665-0.517-1.059c-0.174-0.391-0.346-0.783-0.518-1.176
		c-0.197-1.813,0.472-3.819,2.01-6.021c1.537-2.199,3.366-4.344,5.488-6.437c2.12-2.09,4.265-3.985,6.434-5.683
		c2.167-1.697,3.744-2.949,4.726-3.756c0.572-0.404,1.478-0.915,2.711-1.529c1.234-0.614,2.612-1.171,4.14-1.672
		c1.525-0.5,3.177-0.924,4.956-1.271c1.777-0.346,3.496-0.456,5.159-0.327c1.247,0.137,2.022,0.657,2.33,1.559
		c0.306,0.904,0.716,1.786,1.229,2.646C51.095,78.115,51.931,78.415,53.175,78.394z"/>
	<path d="M114.867,44.391c-0.647,1.039-1.635,2.577-2.969,4.615c-1.333,2.038-2.808,4.316-4.423,6.833
		c-1.617,2.517-3.333,5.115-5.153,7.793c-1.82,2.68-3.499,5.198-5.032,7.554c-1.536,2.358-2.87,4.376-4.001,6.055
		c-1.134,1.679-1.861,2.758-2.184,3.238c1.237-0.416,2.718-1.133,4.442-2.152c1.725-1.017,3.163-1.733,4.318-2.149
		c1.317-0.497,2.624-0.538,3.918-0.127c1.292,0.413,2.365,1.244,3.217,2.492c0.594,0.86,1.088,1.74,1.477,2.641
		c0.389,0.902,0.55,1.868,0.486,2.895c0.005,0.317-0.073,0.635-0.232,0.952c-0.159,0.477-0.558,1.334-1.2,2.569
		c-0.643,1.237-1.385,2.631-2.229,4.187c-0.844,1.555-1.729,3.191-2.652,4.905c-0.925,1.716-1.768,3.311-2.53,4.785
		c-0.764,1.476-1.625,3.169-2.586,5.082c0.575-0.247,1.975-0.942,4.194-2.088c2.22-1.145,4.563-2.409,7.027-3.797
		c2.877-1.472,6.083-3.188,9.617-5.146c-3.437,2.747-6.505,5.21-9.205,7.391c-1.146,0.968-2.312,1.897-3.498,2.787
		c-1.188,0.891-2.253,1.698-3.193,2.426c-0.942,0.728-1.741,1.313-2.396,1.76c-0.657,0.445-1.067,0.709-1.23,0.792
		c-3.213,1.319-6.332,0.86-9.357-1.377c-1.261-0.927-2.043-1.761-2.346-2.507c-0.305-0.745-0.261-1.833,0.13-3.262
		c0.384-1.744,1.063-3.258,2.036-4.539c0.973-1.28,1.987-2.602,3.042-3.965c1.134-1.52,2.207-3.02,3.219-4.5
		c1.011-1.479,2.083-3.018,3.217-4.619c-0.085-0.076-0.17-0.134-0.252-0.173c-0.084-0.038-0.169-0.134-0.254-0.292
		c-3.228,0.453-6.114,1.549-8.654,3.292c-2.542,1.744-4.771,3.639-6.683,5.687c-1.915,2.048-3.476,4.051-4.686,6.008
		s-2.14,3.375-2.788,4.256c-0.081,0.16-0.263,0.4-0.547,0.721c-0.286,0.321-0.778,0.646-1.476,0.973
		c-0.7,0.33-1.67,0.545-2.914,0.645c-1.243,0.102-2.822-0.029-4.735-0.392c-0.166,0.003-0.584-0.267-1.259-0.808
		c-0.672-0.541-1.052-0.889-1.138-1.047c0.156-0.635,0.274-1.031,0.353-1.191c0.081-0.158,0.119-0.316,0.116-0.477
		c7.595-11.588,14.505-22.06,20.731-31.413c2.668-3.997,5.274-7.953,7.819-11.87c2.545-3.915,4.889-7.452,7.033-10.611
		c2.142-3.158,3.921-5.817,5.336-7.975c1.413-2.158,2.323-3.478,2.731-3.959c1.867-2.323,3.779-2.04,5.739,0.848
		c0.678,0.858,1.19,1.718,1.538,2.581C115.49,42.128,115.511,43.354,114.867,44.391z"/>
	<path d="M160.316,99.585c0.002,0.159,0.807-0.133,2.411-0.872c1.604-0.738,3.394-1.639,5.366-2.701
		c2.221-1.144,4.809-2.532,7.768-4.165l0.021,1.303c-2.539,1.863-4.959,3.485-7.256,4.868c-1.972,1.142-3.945,2.184-5.92,3.125
		c-1.975,0.944-3.462,1.267-4.463,0.967c-1.5-0.367-2.406-1.221-2.721-2.56c-0.314-1.337-0.396-2.481-0.246-3.433
		c-2.043,1.774-3.945,3.31-5.706,4.604c-1.763,1.295-3.218,2.27-4.366,2.92c-0.988,0.492-1.933,1.041-2.834,1.65
		c-0.903,0.607-1.891,1.119-2.96,1.533c-2.472,0.99-5.124,1.194-7.954,0.612c-3.328-0.573-5.928-2.107-7.795-4.604
		c-0.173-0.313-0.344-0.664-0.516-1.058c-0.174-0.392-0.346-0.783-0.519-1.177c-0.197-1.813,0.472-3.818,2.011-6.02
		c1.536-2.199,3.366-4.344,5.487-6.437c2.12-2.091,4.265-3.986,6.434-5.683c2.168-1.697,3.744-2.948,4.727-3.756
		c0.572-0.404,1.477-0.915,2.711-1.529c1.233-0.614,2.612-1.171,4.14-1.672c1.525-0.5,3.177-0.924,4.956-1.271
		c1.776-0.346,3.495-0.456,5.158-0.327c1.246,0.138,2.021,0.657,2.329,1.56c0.306,0.904,0.716,1.786,1.229,2.645
		c0.085,0.158,0.212,0.313,0.382,0.467c0.42,0.389,0.91,1.11,1.469,2.167c0.557,1.057,0.767,2.377,0.629,3.959
		c0.006,0.316-0.031,0.652-0.107,1.009s-0.195,0.735-0.354,1.132c-0.082,0.081-0.121,0.141-0.121,0.18
		c0.001,0.041-0.041,0.101-0.121,0.18c-0.314,1.033-0.646,2.224-0.995,3.573c-0.351,1.351-0.7,2.66-1.052,3.929
		c-0.352,1.271-0.643,2.363-0.876,3.274C160.428,98.893,160.313,99.428,160.316,99.585z M134.303,99.328
		c1.159-0.099,2.865-0.898,5.123-2.4c2.254-1.501,4.525-3.239,6.814-5.216c2.287-1.975,4.307-3.945,6.057-5.913
		c1.75-1.966,2.698-3.425,2.849-4.375c-0.917-0.221-1.831-0.324-2.743-0.308c-0.83,0.014-1.74,0.13-2.732,0.344
		c-0.991,0.215-1.939,0.608-2.841,1.176c-0.574,0.406-1.536,1.093-2.889,2.065c-1.352,0.972-2.785,2.063-4.298,3.275
		c-1.516,1.212-2.986,2.482-4.414,3.811c-1.43,1.329-2.506,2.553-3.233,3.671c-0.728,1.12-0.96,2.031-0.698,2.738
		C131.558,98.901,132.56,99.28,134.303,99.328z"/>
	<path d="M205.956,79.859c-0.649,0.882-1.601,2.202-2.855,3.961c-1.257,1.761-2.531,3.581-3.825,5.459
		c-1.295,1.88-2.469,3.58-3.52,5.098c-1.053,1.521-1.699,2.48-1.94,2.878c2.133-1.3,3.979-2.458,5.539-3.475
		c1.558-1.014,3.28-2.131,5.168-3.349c1.887-1.218,3.671-2.375,5.353-3.471c1.681-1.096,3.179-2.07,4.491-2.923
		c1.312-0.853,2.173-1.401,2.585-1.645c-0.242,0.4-1.037,1.185-2.386,2.353c-1.349,1.17-2.984,2.582-4.904,4.234
		c-1.921,1.654-3.984,3.388-6.193,5.204c-2.208,1.816-4.315,3.513-6.319,5.088c-2.007,1.576-3.726,2.93-5.156,4.061
		c-1.433,1.133-2.313,1.818-2.64,2.061l-1.101,1.086c-0.165,0.162-0.473,0.346-0.924,0.55c-0.453,0.206-0.989,0.373-1.609,0.502
		c-0.62,0.13-1.221,0.24-1.799,0.328c-0.58,0.088-1.037,0.057-1.37-0.095c-0.419-0.15-0.774-0.381-1.07-0.692
		c-0.295-0.31-0.612-0.659-0.951-1.05c-1.353-1.477-1.423-3.096-0.209-4.855l24.261-35.979c-1.991,0.035-3.608,0.063-4.853,0.085
		c-1.244,0.021-2.345,0.002-3.299-0.061c-0.955-0.061-1.868-0.125-2.741-0.189c-0.872-0.063-1.849-0.086-2.925-0.067
		c-0.416,0.007-0.792-0.104-1.126-0.336c-0.337-0.231-0.673-0.421-1.006-0.575c-0.503-0.306-1.027-0.614-1.571-0.921
		c-0.546-0.305-0.945-0.654-1.201-1.046c-0.766-1.092-1.2-2.151-1.3-3.177c-0.004-0.237,0.179-0.496,0.547-0.78
		c0.368-0.282,0.718-0.427,1.05-0.433c0.662-0.089,2.05-0.193,4.164-0.31c2.113-0.115,4.433-0.235,6.962-0.359
		c2.528-0.122,5.015-0.225,7.462-0.308c2.444-0.082,4.291-0.094,5.537-0.038c1.777-2.638,3.538-5.177,5.28-7.618
		c1.74-2.439,3.279-4.6,4.615-6.48c1.336-1.879,2.855-3.979,4.557-6.302c0.246-0.162,0.532-0.365,0.86-0.607
		c0.327-0.243,0.574-0.325,0.743-0.25c1.915,0.44,3.543,1.045,4.885,1.811c1.17,0.533,1.764,1.254,1.779,2.161
		c0.017,0.909-0.465,1.845-1.444,2.811c-0.243,0.321-0.71,0.96-1.397,1.921c-0.688,0.96-1.417,2-2.186,3.12
		c-0.77,1.121-1.518,2.18-2.246,3.18c-0.729,1.002-1.215,1.74-1.455,2.218c-0.161,0.319-0.362,0.64-0.605,0.958
		c-0.161,0.319-0.383,0.679-0.665,1.078c-0.285,0.401-0.589,0.84-0.911,1.32l8.205-0.499l2.608-0.282
		c0.249-0.004,0.517-0.009,0.809-0.014c0.29-0.005,0.519,0.07,0.688,0.225c0.923,0.617,1.866,1.193,2.83,1.728
		c0.962,0.537,1.865,1.153,2.708,1.849c0.169,0.234,0.341,0.627,0.518,1.176c0.176,0.551,0.184,1.024,0.025,1.422
		c-0.16,0.399-0.402,0.798-0.726,1.198c-0.326,0.402-0.695,0.646-1.107,0.73c-0.912,0.096-1.72,0.169-2.423,0.22
		c-0.705,0.053-1.783,0.11-3.232,0.175c-1.451,0.066-3.463,0.14-6.032,0.224c-2.57,0.086-6.093,0.245-10.569,0.481
		c-2.104,3.118-4.145,6.137-6.126,9.055C208.283,76.6,206.847,78.658,205.956,79.859z"/>
</g>
<g>
</g>
<g>
</g>
<g>
</g>
<g>
</g>
<g>
</g>
<g>
</g>
<g>
</g>
<g>
</g>
<g>
</g>
<g>
</g>
<g>
</g>
<g>
</g>
<g>
</g>
<g>
</g>
<g>
</g>
</svg>
