<?xml version="1.0" encoding="utf-8"?>
<!-- Generator: Adobe Illustrator 16.0.0, SVG Export Plug-In . SVG Version: 6.00 Build 0)  -->
<!DOCTYPE svg PUBLIC "-//W3C//DTD SVG 1.1//EN" "http://www.w3.org/Graphics/SVG/1.1/DTD/svg11.dtd">
<svg version="1.1" id="Layer_1" xmlns="http://www.w3.org/2000/svg" xmlns:xlink="http://www.w3.org/1999/xlink" x="0px" y="0px"
	 width="150px" height="150px" viewBox="0 0 150 150" enable-background="new 0 0 150 150" xml:space="preserve">
<g>
	<rect x="-1.554" y="3.348" fill="none" width="121.066" height="151.969"/>
	<path fill="#F7931E" d="M10.524,11.583c8.601-1.464,20.679-2.562,37.697-2.562c17.202,0,29.463,3.294,37.698,9.882
		c7.869,6.222,13.176,16.47,13.176,28.548c0,12.078-4.026,22.326-11.346,29.28c-9.517,8.967-23.607,12.992-40.077,12.992
		c-3.66,0-6.954-0.182-9.516-0.549v44.104H10.524V11.583z M38.157,67.581c2.379,0.549,5.307,0.732,9.333,0.732
		c14.823,0,23.973-7.503,23.973-20.13c0-11.346-7.869-18.117-21.777-18.117c-5.673,0-9.516,0.549-11.529,1.098V67.581z"/>
</g>
<g>
	<rect x="87.999" y="81" fill="none" width="53.001" height="55.667"/>
	<path d="M95.537,81.681h-2.288l-1.595,7.481h-0.518l1.596-7.481h-2.277l0.088-0.439h5.082L95.537,81.681z"/>
	<path d="M98.287,87.831c0.406,0,0.671,0.341,0.583,0.748s-0.495,0.737-0.902,0.737s-0.671-0.33-0.583-0.737
		S97.88,87.831,98.287,87.831z"/>
	<path d="M103.775,88.722h3.477l-0.1,0.44h-3.993l1.684-7.921h0.517L103.775,88.722z"/>
	<path d="M111.486,87.831c0.406,0,0.671,0.341,0.583,0.748s-0.495,0.737-0.902,0.737s-0.671-0.33-0.583-0.737
		S111.079,87.831,111.486,87.831z"/>
	<path d="M121.287,81.241h0.572l-1.684,7.921h-0.517l1.463-6.876H121.1l-2.772,4.4l-0.901-4.4l-0.033,0.022l-1.452,6.854h-0.518
		l1.684-7.921h0.572l0.88,4.356L121.287,81.241z"/>
	<path d="M124.686,87.831c0.406,0,0.671,0.341,0.583,0.748s-0.495,0.737-0.902,0.737s-0.671-0.33-0.583-0.737
		S124.278,87.831,124.686,87.831z"/>
	<path d="M132.506,88.315h0.022l1.969-7.074h0.605l-2.311,7.998h-0.693l-0.318-3.982l-1.98,3.982h-0.693l1.078-7.998h0.605
		l-1.046,7.074h0.022l2.299-4.401L132.506,88.315z"/>
	<path d="M137.885,87.831c0.406,0,0.671,0.341,0.583,0.748s-0.495,0.737-0.902,0.737s-0.671-0.33-0.583-0.737
		S137.478,87.831,137.885,87.831z"/>
	<path d="M94.063,102.362H93.48l-0.199-2.409h-2.695l-1.242,2.409h-0.572l4.389-8.24L94.063,102.362z M90.785,99.513h2.475
		l-0.396-3.982L90.785,99.513z"/>
	<path d="M98.287,101.031c0.406,0,0.671,0.341,0.583,0.748s-0.495,0.737-0.902,0.737s-0.671-0.33-0.583-0.737
		S97.88,101.031,98.287,101.031z"/>
	<path d="M108.737,94.881h-2.289l-1.595,7.481h-0.518l1.596-7.481h-2.277l0.088-0.439h5.083L108.737,94.881z"/>
	<path d="M111.486,101.031c0.406,0,0.671,0.341,0.583,0.748s-0.495,0.737-0.902,0.737s-0.671-0.33-0.583-0.737
		S111.079,101.031,111.486,101.031z"/>
	<path d="M120.759,95.938c0.121-0.693-0.352-1.21-1.045-1.21c-1.837,0-2.497,2.387-2.783,3.729
		c-0.275,1.309-0.627,3.619,1.155,3.619c0.825,0,1.573-0.616,1.782-1.43h0.517c-0.352,1.166-1.265,1.87-2.442,1.87
		c-2.09,0-1.914-2.398-1.573-4.005c0.363-1.684,1.199-4.225,3.433-4.225c0.968,0,1.596,0.683,1.475,1.65H120.759z"/>
	<path d="M124.686,101.031c0.406,0,0.671,0.341,0.583,0.748s-0.495,0.737-0.902,0.737s-0.671-0.33-0.583-0.737
		S124.278,101.031,124.686,101.031z"/>
	<path d="M135.136,94.881h-2.289l-1.595,7.481h-0.518l1.596-7.481h-2.277l0.088-0.439h5.083L135.136,94.881z"/>
	<path d="M137.885,101.031c0.406,0,0.671,0.341,0.583,0.748s-0.495,0.737-0.902,0.737s-0.671-0.33-0.583-0.737
		S137.478,101.031,137.885,101.031z"/>
	<path d="M89.409,115.562l1.684-7.921h1.937c1.154,0,1.804,0.726,1.551,1.937c-0.188,0.868-0.803,1.452-1.65,1.793
		c0.957,0.297,1.397,1.034,1.166,2.102c-0.242,1.133-1.166,2.09-2.42,2.09H89.409z M91.687,115.121c0.649,0,1.65-0.473,1.893-1.628
		c0.198-0.957-0.286-1.837-1.464-1.837h-1.363l-0.727,3.465H91.687z M91.654,111.216c1.353,0,2.188-0.66,2.408-1.672
		c0.177-0.848-0.044-1.464-1.363-1.464h-1.178l-0.671,3.136H91.654z"/>
	<path d="M98.287,114.23c0.406,0,0.671,0.341,0.583,0.748s-0.495,0.737-0.902,0.737s-0.671-0.33-0.583-0.737
		S97.88,114.23,98.287,114.23z"/>
	<path d="M108.737,108.08h-2.289l-1.595,7.481h-0.518l1.596-7.481h-2.277l0.088-0.439h5.083L108.737,108.08z"/>
	<path d="M111.486,114.23c0.406,0,0.671,0.341,0.583,0.748s-0.495,0.737-0.902,0.737s-0.671-0.33-0.583-0.737
		S111.079,114.23,111.486,114.23z"/>
	<path d="M121.287,107.641h0.572l-1.684,7.921h-0.517l1.463-6.876H121.1l-2.772,4.4l-0.901-4.4l-0.033,0.022l-1.452,6.854h-0.518
		l1.684-7.921h0.572l0.88,4.356L121.287,107.641z"/>
	<path d="M124.686,114.23c0.406,0,0.671,0.341,0.583,0.748s-0.495,0.737-0.902,0.737s-0.671-0.33-0.583-0.737
		S124.278,114.23,124.686,114.23z"/>
	<path d="M130.734,107.641h1.98c0.924,0,1.452,0.517,1.65,1.122c0.165,0.495,0.198,1.397-0.11,2.838
		c-0.418,2.014-1.111,2.872-1.298,3.081c-0.473,0.517-1.111,0.88-2.079,0.88h-1.826L130.734,107.641z M129.668,115.121h0.979
		c0.869,0,1.617-0.121,2.189-1.012c0.462-0.704,0.704-1.749,0.869-2.509c0.154-0.759,0.374-1.903,0.176-2.585
		c-0.23-0.836-0.902-0.936-1.738-0.936h-0.979L129.668,115.121z"/>
	<path d="M137.885,114.23c0.406,0,0.671,0.341,0.583,0.748s-0.495,0.737-0.902,0.737s-0.671-0.33-0.583-0.737
		S137.478,114.23,137.885,114.23z"/>
	<path d="M98.188,120.841h0.572l-1.683,7.921H96.56l1.463-6.876h-0.021l-2.772,4.4l-0.902-4.4l-0.033,0.022l-1.451,6.854h-0.518
		l1.683-7.921h0.572l0.881,4.356L98.188,120.841z"/>
	<path d="M101.587,127.431c0.406,0,0.671,0.341,0.583,0.748s-0.495,0.737-0.902,0.737s-0.671-0.33-0.583-0.737
		S101.18,127.431,101.587,127.431z"/>
	<path d="M105.909,128.762l1.683-7.921h1.937c1.155,0,1.805,0.726,1.551,1.936c-0.187,0.869-0.803,1.453-1.649,1.794
		c0.957,0.297,1.396,1.034,1.166,2.102c-0.242,1.133-1.166,2.09-2.421,2.09H105.909z M108.187,128.321
		c0.648,0,1.649-0.473,1.892-1.628c0.198-0.957-0.286-1.837-1.463-1.837h-1.364l-0.727,3.465H108.187z M108.153,124.416
		c1.353,0,2.189-0.66,2.409-1.672c0.176-0.848-0.044-1.464-1.364-1.464h-1.177l-0.672,3.136H108.153z"/>
	<path d="M114.786,127.431c0.406,0,0.671,0.341,0.583,0.748s-0.495,0.737-0.902,0.737s-0.671-0.33-0.583-0.737
		S114.379,127.431,114.786,127.431z"/>
	<path d="M125.236,121.28h-2.289l-1.595,7.481h-0.518l1.596-7.481h-2.277l0.088-0.439h5.083L125.236,121.28z"/>
	<path d="M127.985,127.431c0.406,0,0.671,0.341,0.583,0.748s-0.495,0.737-0.902,0.737s-0.671-0.33-0.583-0.737
		S127.578,127.431,127.985,127.431z"/>
	<path d="M135.806,127.915h0.022l1.969-7.074h0.605l-2.311,7.998h-0.693l-0.318-3.982l-1.98,3.982h-0.693l1.078-7.998h0.605
		l-1.046,7.074h0.022l2.299-4.401L135.806,127.915z"/>
</g>
<g>
	<path fill="#F7931E" d="M51.801,117.267c0-7.729,5.296-13.312,12.882-13.312s12.739,5.439,12.739,13.312
		c0,7.585-5.153,13.167-12.882,13.167C57.097,130.434,51.801,124.852,51.801,117.267z"/>
</g>
<g>
</g>
<g>
</g>
<g>
</g>
<g>
</g>
<g>
</g>
<g>
</g>
<g>
</g>
<g>
</g>
<g>
</g>
<g>
</g>
<g>
</g>
<g>
</g>
<g>
</g>
<g>
</g>
<g>
</g>
</svg>
