<?xml version="1.0" encoding="utf-8"?>
<!-- Generator: Adobe Illustrator 16.0.0, SVG Export Plug-In . SVG Version: 6.00 Build 0)  -->
<!DOCTYPE svg PUBLIC "-//W3C//DTD SVG 1.1//EN" "http://www.w3.org/Graphics/SVG/1.1/DTD/svg11.dtd">
<svg version="1.1" id="Layer_1" xmlns="http://www.w3.org/2000/svg" xmlns:xlink="http://www.w3.org/1999/xlink" x="0px" y="0px"
	 width="216px" height="239px" viewBox="0 0 216 239" enable-background="new 0 0 216 239" xml:space="preserve">
<rect x="27" width="163" height="9"/>
<rect x="9" y="18" width="9" height="9"/>
<rect x="18" y="9" width="9" height="9"/>
<rect x="189" y="9" width="9" height="9"/>
<rect x="198" y="18" width="9" height="9"/>
<rect y="27" width="9" height="9"/>
<rect x="207" y="27" width="9" height="153"/>
<rect x="203" y="180" width="9" height="9"/>
<rect x="195" y="189" width="9" height="9"/>
<rect x="53" y="198" width="145" height="9"/>
<rect x="43" y="212" width="9" height="5"/>
<rect x="47" y="207" width="9" height="5"/>
<rect x="35" y="221" width="9" height="4"/>
<rect x="39" y="217" width="9" height="4"/>
<rect x="27" y="230" width="9" height="4"/>
<rect x="31" y="225" width="9" height="5"/>
<rect x="17" y="217" width="7" height="4"/>
<rect x="15" y="221" width="7" height="4"/>
<rect x="17" y="207" width="7" height="5"/>
<rect x="18" y="212" width="7" height="5"/>
<rect x="15" y="234" width="9" height="5"/>
<rect x="17" y="198" width="5" height="9"/>
<rect x="13" y="196" width="7" height="7"/>
<rect x="5" y="189" width="7" height="6"/>
<rect x="10" y="193" width="7" height="6"/>
<rect y="36" width="9" height="153"/>
<rect x="21" y="234" width="7" height="5"/>
<rect x="11" y="229" width="7" height="5"/>
<rect x="12" y="225" width="7" height="4"/>
<g>
	<rect x="48.75" y="38" fill="none" width="153.5" height="149"/>
	<path d="M123.811,108.56v17.82H93.75v-19.44l30.061-32.58v-21.6H94.83c-2.042,0-4.022,0.45-5.94,1.35
		c-1.921,0.9-3.662,2.101-5.22,3.6c-1.561,1.502-2.821,3.212-3.78,5.13c-0.962,1.921-1.44,3.901-1.44,5.94H63.87
		c0-3.96,0.9-7.768,2.7-11.43c1.8-3.659,4.14-6.93,7.02-9.81c2.88-2.88,6.179-5.189,9.9-6.93C87.208,38.872,90.988,38,94.83,38
		h27.359c3.84,0,7.619,0.872,11.34,2.61c3.719,1.741,7.049,4.05,9.99,6.93c2.939,2.88,5.311,6.151,7.11,9.81
		c1.8,3.662,2.7,7.47,2.7,11.43v7.2L123.811,108.56z M93.75,173v-30.061h30.061V173H93.75z"/>
</g>
<g>
</g>
<g>
</g>
<g>
</g>
<g>
</g>
<g>
</g>
<g>
</g>
<g>
</g>
<g>
</g>
<g>
</g>
<g>
</g>
<g>
</g>
<g>
</g>
<g>
</g>
<g>
</g>
<g>
</g>
</svg>
