<?xml version="1.0" encoding="utf-8"?>
<!-- Generator: Adobe Illustrator 16.0.0, SVG Export Plug-In . SVG Version: 6.00 Build 0)  -->
<!DOCTYPE svg PUBLIC "-//W3C//DTD SVG 1.1//EN" "http://www.w3.org/Graphics/SVG/1.1/DTD/svg11.dtd">
<svg version="1.1" xmlns="http://www.w3.org/2000/svg" xmlns:xlink="http://www.w3.org/1999/xlink" x="0px" y="0px"
	 width="162.946px" height="257.125px" viewBox="0 0 162.946 257.125" enable-background="new 0 0 162.946 257.125"
	 xml:space="preserve">
<g id="Layer_1">
</g>
<g id="icon">
	<rect x="2.268" y="9.326" transform="matrix(0.9767 0.2146 -0.2146 0.9767 4.5092 -0.8718)" width="8" height="22"/>
	<rect x="11.682" y="18.314" transform="matrix(0.9767 0.2147 -0.2147 0.9767 6.7761 -17.7661)" width="147" height="8"/>
	<rect x="6.67" y="39.422" transform="matrix(0.9767 0.2147 -0.2147 0.9767 11.2025 -16.3062)" width="148.007" height="8"/>
	<rect x="153.666" y="42.494" transform="matrix(0.9767 0.2147 -0.2147 0.9767 15.1503 -32.496)" width="7" height="22"/>
	<rect x="6.942" y="65.125" width="147" height="7"/>
	<rect x="62.77" y="7.088" transform="matrix(0.9767 0.2147 -0.2147 0.9767 3.8293 -14.086)" width="8" height="7"/>
	<rect x="102.813" y="15.889" transform="matrix(0.9767 0.2147 -0.2147 0.9767 6.6521 -22.4767)" width="8" height="7"/>
	<rect x="70.913" y="3.556" transform="matrix(0.9767 0.2147 -0.2147 0.9767 3.6718 -18.6967)" width="33.999" height="8"/>
	<rect x="40.942" y="86.125" width="6" height="7"/>
	<rect x="70.942" y="86.125" width="6" height="7"/>
	<rect x="96.942" y="86.125" width="7" height="7"/>
	<rect x="126.942" y="86.125" width="7" height="7"/>
	<rect x="6.942" y="72.125" width="7" height="177"/>
	<rect x="145.942" y="72.125" width="8" height="177"/>
	<rect x="13.942" y="249.125" width="132" height="8"/>
	<rect x="32.942" y="95.125" width="7" height="132"/>
	<rect x="39.942" y="227.125" width="7" height="7"/>
	<rect x="62.942" y="95.125" width="8" height="132"/>
	<rect x="70.942" y="227.125" width="7" height="7"/>
	<rect x="96.942" y="227.125" width="8" height="7"/>
	<rect x="126.942" y="227.125" width="8" height="7"/>
	<rect x="88.942" y="95.125" width="8" height="132"/>
	<rect x="119.942" y="95.125" width="7" height="132"/>
	<g>
	</g>
	<g>
	</g>
	<g>
	</g>
	<g>
	</g>
	<g>
	</g>
	<g>
	</g>
	<g>
	</g>
	<g>
	</g>
	<g>
	</g>
	<g>
	</g>
	<g>
	</g>
	<g>
	</g>
	<g>
	</g>
	<g>
	</g>
	<g>
	</g>
</g>
</svg>
