<?xml version="1.0" encoding="utf-8"?>
<!-- Generator: Adobe Illustrator 16.0.0, SVG Export Plug-In . SVG Version: 6.00 Build 0)  -->
<!DOCTYPE svg PUBLIC "-//W3C//DTD SVG 1.1//EN" "http://www.w3.org/Graphics/SVG/1.1/DTD/svg11.dtd">
<svg version="1.1" xmlns="http://www.w3.org/2000/svg" xmlns:xlink="http://www.w3.org/1999/xlink" x="0px" y="0px" width="162px"
	 height="230px" viewBox="0 0 162 230" enable-background="new 0 0 162 230" xml:space="preserve">
<g id="Layer_1">
</g>
<g id="icon">
	<g>
		<rect y="23" width="8" height="22"/>
		<rect x="8" y="15" width="147" height="8"/>
		<rect x="155" y="23" width="7" height="22"/>
		<rect x="8" y="38" width="147" height="7"/>
		<rect x="57" y="8" width="8" height="7"/>
		<rect x="98" y="8" width="8" height="7"/>
		<rect x="64" width="34" height="8"/>
		<rect x="42" y="59" width="6" height="7"/>
		<rect x="72" y="59" width="6" height="7"/>
		<rect x="98" y="59" width="7" height="7"/>
		<rect x="128" y="59" width="7" height="7"/>
		<rect x="8" y="45" width="7" height="177"/>
		<rect x="147" y="45" width="8" height="177"/>
		<rect x="15" y="222" width="132" height="8"/>
		<rect x="34" y="68" width="7" height="132"/>
		<rect x="41" y="200" width="7" height="7"/>
		<rect x="64" y="68" width="8" height="132"/>
		<rect x="72" y="200" width="7" height="7"/>
		<rect x="98" y="200" width="8" height="7"/>
		<rect x="128" y="200" width="8" height="7"/>
		<rect x="90" y="68" width="8" height="132"/>
		<rect x="121" y="68" width="7" height="132"/>
	</g>
	<g>
	</g>
	<g>
	</g>
	<g>
	</g>
	<g>
	</g>
	<g>
	</g>
	<g>
	</g>
	<g>
	</g>
	<g>
	</g>
	<g>
	</g>
	<g>
	</g>
	<g>
	</g>
	<g>
	</g>
	<g>
	</g>
	<g>
	</g>
	<g>
	</g>
</g>
</svg>
