<?xml version="1.0" encoding="utf-8"?>
<!-- Generator: Adobe Illustrator 16.0.0, SVG Export Plug-In . SVG Version: 6.00 Build 0)  -->
<!DOCTYPE svg PUBLIC "-//W3C//DTD SVG 1.1//EN" "http://www.w3.org/Graphics/SVG/1.1/DTD/svg11.dtd">
<svg version="1.1" xmlns="http://www.w3.org/2000/svg" xmlns:xlink="http://www.w3.org/1999/xlink" x="0px" y="0px" width="192px"
	 height="257.125px" viewBox="0 0 192 257.125" enable-background="new 0 0 192 257.125" xml:space="preserve">
<g id="Layer_1">
</g>
<g id="icon">
	<rect x="18.326" y="9.326" transform="matrix(0.9767 0.2146 -0.2146 0.9767 4.8834 -4.3186)" width="8" height="22"/>
	<rect x="27.74" y="18.314" transform="matrix(0.9767 0.2147 -0.2147 0.9767 7.1505 -21.2134)" width="147" height="8"/>
	<rect x="22.728" y="39.422" transform="matrix(0.9767 0.2147 -0.2147 0.9767 11.5769 -19.7535)" width="148.007" height="8"/>
	<rect x="169.724" y="42.494" transform="matrix(0.9767 0.2147 -0.2147 0.9767 15.5247 -35.9436)" width="7" height="22"/>
	<rect x="23" y="65.125" width="147" height="7"/>
	<rect x="78.828" y="7.088" transform="matrix(0.9767 0.2147 -0.2147 0.9767 4.2036 -17.5331)" width="8" height="7"/>
	<rect x="118.872" y="15.889" transform="matrix(0.9767 0.2147 -0.2147 0.9767 7.0265 -25.9238)" width="8" height="7"/>
	<rect x="86.972" y="3.556" transform="matrix(0.9767 0.2147 -0.2147 0.9767 4.0462 -22.144)" width="33.999" height="8"/>
	<g>
		<rect x="21" y="70.125" width="8" height="7"/>
		<rect x="17" y="77.125" width="8" height="7"/>
		<rect x="15" y="84.125" width="7" height="7"/>
		<rect x="12" y="90.125" width="8" height="7"/>
		<rect x="11" y="97.125" width="8" height="7"/>
		<rect x="8" y="103.125" width="8" height="7"/>
		<rect x="7" y="110.125" width="8" height="7"/>
		<rect x="4" y="117.125" width="8" height="7"/>
		<rect x="3" y="124.125" width="8" height="7"/>
		<rect x="3" y="131.125" width="8" height="7"/>
		<rect x="2" y="138.125" width="7" height="7"/>
		<rect y="145.125" width="8" height="7"/>
		<rect y="153.125" width="8" height="7"/>
		<rect y="149.125" width="8" height="7"/>
		<rect y="160.125" width="8" height="7"/>
		<rect x="2" y="167.125" width="7" height="7"/>
		<rect x="2" y="174.125" width="7" height="7"/>
		<rect x="3" y="181.125" width="8" height="7"/>
		<rect x="4" y="188.125" width="8" height="7"/>
		<rect x="6" y="195.125" width="7" height="7"/>
		<rect x="7" y="202.125" width="8" height="7"/>
		<rect x="9" y="209.125" width="8" height="7"/>
		<rect x="11" y="216.125" width="8" height="7"/>
		<rect x="12" y="223.125" width="8" height="7"/>
		<rect x="13" y="229.125" width="8" height="7"/>
		<rect x="16" y="236.125" width="8" height="7"/>
		<rect x="19" y="243.125" width="7" height="7"/>
	</g>
	<rect x="24" y="249.125" width="7" height="8"/>
	<rect x="30" y="249.125" width="138" height="8"/>
	<g>
		<rect x="163" y="71.125" width="8" height="7"/>
		<rect x="167" y="78.125" width="8" height="7"/>
		<rect x="170" y="85.125" width="7" height="7"/>
		<rect x="172" y="91.125" width="8" height="7"/>
		<rect x="173" y="98.125" width="8" height="7"/>
		<rect x="176" y="104.125" width="8" height="7"/>
		<rect x="177" y="111.125" width="8" height="7"/>
		<rect x="180" y="118.125" width="8" height="7"/>
		<rect x="181" y="125.125" width="8" height="7"/>
		<rect x="181" y="132.125" width="8" height="7"/>
		<rect x="183" y="139.125" width="7" height="7"/>
		<rect x="184" y="146.125" width="8" height="7"/>
		<rect x="184" y="154.125" width="8" height="7"/>
		<rect x="184" y="150.125" width="8" height="7"/>
		<rect x="184" y="161.125" width="8" height="7"/>
		<rect x="183" y="168.125" width="7" height="7"/>
		<rect x="183" y="175.125" width="7" height="7"/>
		<rect x="181" y="182.125" width="8" height="7"/>
		<rect x="180" y="189.125" width="8" height="7"/>
		<rect x="179" y="196.125" width="7" height="7"/>
		<rect x="177" y="203.125" width="8" height="7"/>
		<rect x="175" y="210.125" width="8" height="7"/>
		<rect x="173" y="217.125" width="8" height="7"/>
		<rect x="172" y="224.125" width="8" height="7"/>
		<rect x="171" y="230.125" width="8" height="7"/>
		<rect x="168" y="237.125" width="8" height="7"/>
		<rect x="166" y="244.125" width="7" height="7"/>
	</g>
	<path d="M30.5,160.625"/>
	<path stroke="#000000" stroke-width="2" stroke-miterlimit="10" d="M26.5,72.125"/>
	<path fill="none" stroke="#000000" stroke-width="5" stroke-miterlimit="10" d="M48.449,90.982c0,0-42.873,75.857,0.589,141"/>
	<path fill="none" stroke="#000000" stroke-width="5" stroke-miterlimit="10" d="M116.156,91.982c0,0,42.873,75.857-0.589,141"/>
	<path fill="none" stroke="#000000" stroke-width="5" stroke-miterlimit="10" d="M144.156,90.982c0,0,42.873,75.857-0.589,141"/>
	<path fill="none" stroke="#000000" stroke-width="5" stroke-miterlimit="10" d="M78.449,92.982c0,0-42.873,75.857,0.589,141"/>
	<g>
	</g>
	<g>
	</g>
	<g>
	</g>
	<g>
	</g>
	<g>
	</g>
	<g>
	</g>
	<g>
	</g>
	<g>
	</g>
	<g>
	</g>
	<g>
	</g>
	<g>
	</g>
	<g>
	</g>
	<g>
	</g>
	<g>
	</g>
	<g>
	</g>
</g>
</svg>
