<?xml version="1.0" encoding="utf-8"?>
<!-- Generator: Adobe Illustrator 16.0.0, SVG Export Plug-In . SVG Version: 6.00 Build 0)  -->
<!DOCTYPE svg PUBLIC "-//W3C//DTD SVG 1.1//EN" "http://www.w3.org/Graphics/SVG/1.1/DTD/svg11.dtd">
<svg version="1.1" id="Layer_1" xmlns="http://www.w3.org/2000/svg" xmlns:xlink="http://www.w3.org/1999/xlink" x="0px" y="0px"
	 width="44.649px" height="78.172px" viewBox="0 0 44.649 78.172" enable-background="new 0 0 44.649 78.172" xml:space="preserve">
<g>
	<path d="M1.927,76.354c-1.717-0.909-1.919-1.817-1.919-3.938c0-3.334-0.101-9.393,0.404-12.727c0.202-1.01,0.505-1.817,1.111-1.817
		c0.707,0,0.909,0.606,0.909,1.717c0,10.807,6.666,13.534,13.736,13.534c8.08,0,16.664-5.354,16.664-18.482
		c0-16.16-17.573-22.826-25.552-23.938c-1.212-0.201-1.919-0.707-1.818-2.02L7.785,2.02c0.101-1.01,0.808-1.313,1.919-1.313h24.744
		c2.828,0,4.545-0.102,5.656-0.303C41.215,0.303,41.821,0,42.124,0c0.808,0,1.011,0.404,1.011,1.919
		c0,2.121-0.304,6.565-1.313,12.928c-0.101,0.606-0.403,1.212-1.11,1.212c-0.606,0-0.809-0.605-0.809-1.414
		c0-2.828-0.707-5.453-8.888-5.453H12.633l-1.414,12.321c15.049,2.424,33.431,10.706,33.431,28.279
		c0,13.433-9.797,28.38-33.229,28.38C8.189,78.172,4.452,77.566,1.927,76.354z"/>
</g>
<g>
</g>
<g>
</g>
<g>
</g>
<g>
</g>
<g>
</g>
<g>
</g>
<g>
</g>
<g>
</g>
<g>
</g>
<g>
</g>
<g>
</g>
<g>
</g>
<g>
</g>
<g>
</g>
<g>
</g>
</svg>
