<?xml version="1.0" encoding="utf-8"?>
<!-- Generator: Adobe Illustrator 16.0.0, SVG Export Plug-In . SVG Version: 6.00 Build 0)  -->
<!DOCTYPE svg PUBLIC "-//W3C//DTD SVG 1.1//EN" "http://www.w3.org/Graphics/SVG/1.1/DTD/svg11.dtd">
<svg version="1.1" id="Layer_1" xmlns="http://www.w3.org/2000/svg" xmlns:xlink="http://www.w3.org/1999/xlink" x="0px" y="0px"
	 width="51.307px" height="79.788px" viewBox="0 0 51.307 79.788" enable-background="new 0 0 51.307 79.788" xml:space="preserve">
<g>
	<path d="M51.307,27.471c0,28.28-24.744,46.055-37.268,51.913c-0.505,0.304-1.01,0.404-1.818,0.404c-0.404,0-0.909-0.505-0.909-1.01
		c0-0.707,0.707-1.313,1.212-1.717c10.504-6.363,26.26-22.927,26.26-46.762c0-17.876-7.575-25.754-15.352-25.754
		c-7.272,0-12.12,6.464-12.12,15.049c0,15.453,9.999,19.088,13.433,19.088c3.535,0,5.555-0.606,6.868-1.212
		c1.11-0.606,1.616-1.111,2.02-1.111c0.404,0,0.808,0.404,0.808,0.909c0,0.303-0.303,0.909-0.504,1.111
		c-2.93,3.131-8.182,4.646-13.332,4.646C6.06,43.025,0,32.016,0,23.532C0,9.898,10.302,0,25.856,0
		C42.319,0,51.307,12.12,51.307,27.471z"/>
</g>
<g>
</g>
<g>
</g>
<g>
</g>
<g>
</g>
<g>
</g>
<g>
</g>
<g>
</g>
<g>
</g>
<g>
</g>
<g>
</g>
<g>
</g>
<g>
</g>
<g>
</g>
<g>
</g>
<g>
</g>
</svg>
