<?xml version="1.0" encoding="utf-8"?>
<!-- Generator: Adobe Illustrator 16.0.0, SVG Export Plug-In . SVG Version: 6.00 Build 0)  -->
<!DOCTYPE svg PUBLIC "-//W3C//DTD SVG 1.1//EN" "http://www.w3.org/Graphics/SVG/1.1/DTD/svg11.dtd">
<svg version="1.1" id="Layer_1" xmlns="http://www.w3.org/2000/svg" xmlns:xlink="http://www.w3.org/1999/xlink" x="0px" y="0px"
	 width="152.76px" height="50.688px" viewBox="0 0 152.76 50.688" enable-background="new 0 0 152.76 50.688" xml:space="preserve">
<g>
	<path d="M27.813,28.67c0.222,0.103,0.38,0.376,0.471,0.821c0.091,0.447,0.127,0.96,0.11,1.539
		c-0.019,0.581-0.132,1.176-0.342,1.784c-0.211,0.609-0.506,1.128-0.885,1.556c-1.762,0.505-3.276,0.848-4.545,1.027
		c-1.27,0.181-2.542,0.177-3.817-0.012c1.028-1.282,1.744-2.269,2.147-2.961c0.403-0.691,0.652-1.406,0.751-2.146
		c-1.319,0.497-2.908,1.421-4.764,2.77c-1.857,1.35-3.548,2.748-5.07,4.197c-0.056,0.001-0.083,0.028-0.082,0.08
		c-0.489,0.482-1.019,1.032-1.589,1.647c-0.57,0.616-1.085,1.231-1.544,1.845c-0.46,0.614-0.865,1.174-1.215,1.68
		c-0.352,0.508-0.552,0.893-0.602,1.156c0.336,0.259,1.111,0.337,2.327,0.236c1.214-0.101,2.636-0.296,4.263-0.588
		c1.625-0.292,3.361-0.664,5.207-1.118c1.844-0.453,3.594-0.865,5.247-1.237c1.653-0.371,3.099-0.673,4.34-0.905
		c1.24-0.231,2.081-0.325,2.525-0.281c0.001,0.053-0.027,0.079-0.082,0.08c-0.22,0.11-0.824,0.358-1.813,0.743
		c-0.989,0.387-2.157,0.841-3.502,1.365c-1.347,0.524-2.802,1.075-4.368,1.656c-1.566,0.58-3.037,1.119-4.41,1.617
		c-1.375,0.498-2.556,0.941-3.544,1.326c-0.989,0.387-1.594,0.608-1.813,0.664c-1.648,0.661-3.416,0.798-5.303,0.408
		c-2.219-0.382-3.952-1.405-5.197-3.069c-0.115-0.208-0.229-0.443-0.344-0.705c-0.116-0.261-0.231-0.522-0.346-0.784
		c-0.131-1.209,0.314-2.546,1.34-4.014c1.024-1.466,2.244-2.896,3.658-4.291c1.414-1.394,2.843-2.657,4.29-3.788
		c1.445-1.132,2.496-1.966,3.15-2.505c0.382-0.27,0.985-0.609,1.808-1.019c0.822-0.41,1.741-0.781,2.76-1.115
		c1.017-0.334,2.118-0.616,3.304-0.848c1.185-0.23,2.331-0.304,3.439-0.218c0.831,0.091,1.348,0.438,1.553,1.039
		c0.204,0.603,0.477,1.19,0.819,1.764C26.426,28.484,26.983,28.685,27.813,28.67z"/>
	<path d="M68.94,6.002c-0.431,0.692-1.09,1.718-1.979,3.076c-0.889,1.359-1.872,2.878-2.948,4.556
		c-1.078,1.678-2.222,3.41-3.436,5.195c-1.213,1.787-2.333,3.466-3.355,5.036c-1.024,1.572-1.913,2.918-2.667,4.037
		c-0.755,1.119-1.241,1.839-1.456,2.159c0.825-0.277,1.812-0.756,2.962-1.435c1.149-0.679,2.108-1.155,2.878-1.434
		c0.878-0.331,1.749-0.358,2.612-0.085c0.862,0.275,1.577,0.829,2.145,1.661c0.396,0.574,0.726,1.16,0.985,1.761
		c0.259,0.602,0.367,1.246,0.324,1.931c0.003,0.211-0.048,0.423-0.155,0.635c-0.106,0.317-0.372,0.889-0.8,1.713
		c-0.429,0.824-0.923,1.754-1.486,2.791c-0.563,1.037-1.153,2.128-1.768,3.271c-0.616,1.144-1.179,2.207-1.687,3.189
		c-0.509,0.984-1.083,2.113-1.725,3.389c0.384-0.165,1.316-0.628,2.796-1.393c1.48-0.763,3.042-1.605,4.685-2.531
		c1.918-0.981,4.055-2.125,6.411-3.43c-2.291,1.831-4.336,3.473-6.136,4.927c-0.764,0.646-1.542,1.265-2.332,1.857
		c-0.792,0.595-1.502,1.133-2.129,1.618c-0.628,0.484-1.16,0.875-1.597,1.173c-0.438,0.297-0.711,0.473-0.82,0.528
		c-2.142,0.879-4.221,0.573-6.238-0.918c-0.84-0.618-1.362-1.174-1.564-1.672c-0.203-0.496-0.174-1.222,0.086-2.175
		c0.256-1.162,0.708-2.171,1.357-3.025c0.649-0.854,1.324-1.734,2.028-2.644c0.756-1.013,1.471-2.013,2.146-3
		c0.673-0.986,1.388-2.012,2.145-3.079c-0.057-0.051-0.113-0.09-0.168-0.116c-0.056-0.024-0.113-0.089-0.169-0.194
		c-2.151,0.302-4.076,1.033-5.769,2.194c-1.694,1.163-3.18,2.426-4.455,3.792c-1.276,1.365-2.317,2.7-3.124,4.005
		c-0.807,1.306-1.427,2.251-1.859,2.837c-0.054,0.107-0.175,0.268-0.365,0.48c-0.191,0.215-0.519,0.432-0.984,0.649
		c-0.467,0.22-1.114,0.362-1.942,0.429c-0.829,0.068-1.881-0.019-3.157-0.261c-0.11,0.002-0.39-0.177-0.839-0.538
		c-0.449-0.36-0.702-0.593-0.759-0.698c0.104-0.423,0.183-0.687,0.235-0.794c0.054-0.105,0.079-0.211,0.077-0.317
		c5.063-7.726,9.67-14.707,13.821-20.942c1.779-2.664,3.516-5.302,5.213-7.913c1.697-2.61,3.259-4.968,4.688-7.074
		c1.428-2.105,2.614-3.878,3.558-5.316c0.942-1.439,1.549-2.318,1.82-2.64c1.245-1.549,2.52-1.36,3.826,0.565
		c0.452,0.572,0.794,1.146,1.026,1.721C69.355,4.493,69.37,5.311,68.94,6.002z"/>
	<path d="M99.24,42.798c0.002,0.105,0.538-0.089,1.607-0.582c1.07-0.492,2.263-1.092,3.577-1.801
		c1.48-0.763,3.207-1.688,5.179-2.776l0.015,0.869c-1.693,1.241-3.307,2.323-4.838,3.245c-1.314,0.761-2.629,1.455-3.945,2.083
		c-1.316,0.63-2.309,0.845-2.976,0.645c-1-0.245-1.604-0.813-1.813-1.706c-0.21-0.892-0.266-1.655-0.164-2.289
		c-1.363,1.184-2.631,2.207-3.805,3.069c-1.175,0.863-2.145,1.513-2.911,1.947c-0.658,0.327-1.288,0.693-1.89,1.1
		c-0.602,0.405-1.26,0.746-1.973,1.021c-1.647,0.661-3.416,0.797-5.303,0.409c-2.219-0.383-3.952-1.405-5.197-3.07
		c-0.115-0.208-0.229-0.442-0.344-0.705c-0.116-0.261-0.231-0.521-0.346-0.784c-0.131-1.208,0.314-2.546,1.34-4.013
		c1.025-1.467,2.244-2.896,3.659-4.291c1.413-1.395,2.843-2.657,4.289-3.789c1.445-1.131,2.496-1.966,3.15-2.504
		c0.382-0.27,0.985-0.61,1.808-1.02s1.741-0.781,2.76-1.115c1.017-0.333,2.117-0.615,3.304-0.848
		c1.185-0.23,2.331-0.304,3.438-0.218c0.832,0.092,1.349,0.438,1.554,1.04c0.204,0.603,0.478,1.19,0.819,1.763
		c0.056,0.105,0.141,0.209,0.254,0.312c0.28,0.26,0.606,0.74,0.979,1.445c0.372,0.704,0.512,1.585,0.42,2.64
		c0.004,0.211-0.021,0.435-0.071,0.673c-0.052,0.237-0.13,0.489-0.235,0.754c-0.055,0.055-0.082,0.095-0.081,0.12
		c0.001,0.027-0.027,0.067-0.081,0.12c-0.209,0.688-0.43,1.482-0.664,2.382c-0.232,0.9-0.467,1.773-0.7,2.62
		c-0.234,0.847-0.429,1.575-0.585,2.183C99.315,42.336,99.238,42.692,99.24,42.798z M81.897,42.626
		c0.773-0.065,1.911-0.599,3.416-1.601c1.502-1,3.018-2.158,4.543-3.477c1.525-1.316,2.871-2.63,4.038-3.942
		c1.166-1.311,1.798-2.283,1.899-2.917c-0.612-0.147-1.222-0.216-1.83-0.205c-0.553,0.01-1.159,0.087-1.82,0.229
		c-0.661,0.144-1.293,0.405-1.895,0.784c-0.383,0.271-1.024,0.729-1.926,1.376c-0.901,0.648-1.857,1.376-2.865,2.184
		c-1.01,0.808-1.991,1.654-2.942,2.54c-0.953,0.886-1.671,1.702-2.155,2.448c-0.485,0.746-0.641,1.354-0.467,1.825
		C80.067,42.342,80.735,42.595,81.897,42.626z"/>
	<path d="M129.667,29.647c-0.433,0.588-1.066,1.468-1.903,2.641c-0.838,1.174-1.688,2.387-2.55,3.64
		c-0.863,1.253-1.646,2.387-2.347,3.398c-0.701,1.014-1.132,1.653-1.294,1.919c1.423-0.867,2.654-1.639,3.693-2.316
		c1.038-0.676,2.187-1.421,3.445-2.232c1.258-0.813,2.447-1.584,3.568-2.314c1.12-0.73,2.119-1.38,2.994-1.948
		c0.874-0.568,1.448-0.935,1.724-1.097c-0.162,0.267-0.691,0.789-1.591,1.568s-1.989,1.721-3.27,2.822
		c-1.28,1.103-2.656,2.259-4.129,3.47c-1.472,1.211-2.877,2.342-4.213,3.392c-1.338,1.051-2.483,1.953-3.438,2.707
		c-0.955,0.755-1.542,1.212-1.76,1.374l-0.734,0.724c-0.109,0.108-0.314,0.23-0.615,0.366c-0.303,0.138-0.659,0.249-1.073,0.335
		c-0.413,0.086-0.813,0.16-1.199,0.219s-0.691,0.038-0.913-0.063c-0.279-0.1-0.517-0.254-0.713-0.461
		c-0.197-0.207-0.409-0.44-0.635-0.7c-0.901-0.984-0.949-2.063-0.14-3.237l16.174-23.986c-1.327,0.023-2.405,0.042-3.234,0.057
		s-1.563,0.002-2.199-0.04c-0.638-0.041-1.246-0.084-1.827-0.127c-0.582-0.041-1.232-0.057-1.951-0.045
		c-0.277,0.005-0.527-0.069-0.75-0.224c-0.225-0.154-0.448-0.281-0.671-0.383c-0.335-0.204-0.685-0.409-1.048-0.614
		c-0.363-0.203-0.629-0.436-0.8-0.697c-0.511-0.728-0.8-1.434-0.866-2.118c-0.003-0.158,0.118-0.33,0.364-0.52
		c0.245-0.188,0.479-0.285,0.699-0.289c0.441-0.06,1.367-0.129,2.776-0.206s2.955-0.157,4.642-0.239
		c1.685-0.081,3.343-0.15,4.974-0.205c1.63-0.055,2.861-0.063,3.691-0.025c1.186-1.759,2.359-3.451,3.521-5.079
		c1.16-1.626,2.187-3.066,3.077-4.32c0.891-1.252,1.903-2.652,3.038-4.201c0.164-0.107,0.354-0.243,0.573-0.404
		c0.218-0.162,0.383-0.217,0.495-0.167c1.276,0.294,2.362,0.697,3.257,1.207c0.78,0.355,1.176,0.837,1.187,1.441
		c0.011,0.605-0.311,1.229-0.963,1.873c-0.162,0.214-0.474,0.641-0.932,1.281c-0.46,0.64-0.945,1.333-1.457,2.079
		c-0.514,0.747-1.012,1.454-1.498,2.12c-0.486,0.668-0.81,1.16-0.97,1.479c-0.107,0.213-0.241,0.427-0.403,0.64
		c-0.108,0.213-0.256,0.452-0.444,0.719c-0.189,0.268-0.392,0.56-0.606,0.88l5.47-0.333l1.739-0.188
		c0.165-0.003,0.345-0.006,0.539-0.009c0.192-0.004,0.346,0.047,0.459,0.149c0.614,0.412,1.243,0.796,1.887,1.152
		c0.641,0.358,1.243,0.769,1.805,1.232c0.113,0.156,0.228,0.419,0.346,0.784c0.116,0.367,0.122,0.684,0.017,0.948
		c-0.106,0.266-0.269,0.532-0.484,0.799c-0.217,0.268-0.463,0.43-0.737,0.486c-0.608,0.064-1.146,0.113-1.615,0.147
		c-0.471,0.035-1.189,0.073-2.155,0.116c-0.968,0.044-2.309,0.094-4.021,0.149c-1.714,0.057-4.063,0.163-7.046,0.32
		c-1.402,2.079-2.764,4.092-4.084,6.037C131.219,27.475,130.262,28.847,129.667,29.647z"/>
</g>
<g>
</g>
<g>
</g>
<g>
</g>
<g>
</g>
<g>
</g>
<g>
</g>
<g>
</g>
<g>
</g>
<g>
</g>
<g>
</g>
<g>
</g>
<g>
</g>
<g>
</g>
<g>
</g>
<g>
</g>
</svg>
