<?xml version="1.0" encoding="utf-8"?>
<!-- Generator: Adobe Illustrator 16.0.0, SVG Export Plug-In . SVG Version: 6.00 Build 0)  -->
<!DOCTYPE svg PUBLIC "-//W3C//DTD SVG 1.1//EN" "http://www.w3.org/Graphics/SVG/1.1/DTD/svg11.dtd">
<svg version="1.1" id="Layer_1" xmlns="http://www.w3.org/2000/svg" xmlns:xlink="http://www.w3.org/1999/xlink" x="0px" y="0px"
	 width="156.406px" height="50.965px" viewBox="0 0 156.406 50.965" enable-background="new 0 0 156.406 50.965"
	 xml:space="preserve">
<g>
	<path fill="#808080" d="M27.565,28.794c0.224,0.099,0.387,0.37,0.485,0.813c0.099,0.445,0.144,0.957,0.137,1.537
		c-0.008,0.58-0.112,1.177-0.311,1.789c-0.2,0.613-0.487,1.138-0.858,1.571c-1.753,0.535-3.261,0.904-4.526,1.106
		c-1.267,0.202-2.538,0.221-3.816,0.055c1.005-1.3,1.705-2.299,2.095-2.998c0.391-0.698,0.627-1.418,0.713-2.159
		c-1.31,0.52-2.882,1.472-4.714,2.853c-1.833,1.382-3.5,2.81-4.997,4.284c-0.056,0.002-0.082,0.03-0.08,0.082
		c-0.481,0.491-1.001,1.051-1.56,1.675c-0.559,0.626-1.064,1.25-1.512,1.871c-0.449,0.622-0.844,1.189-1.186,1.701
		c-0.343,0.514-0.537,0.902-0.582,1.167c0.341,0.252,1.117,0.316,2.331,0.195c1.212-0.121,2.63-0.342,4.251-0.662
		c1.62-0.32,3.349-0.723,5.187-1.209c1.836-0.485,3.578-0.928,5.224-1.329c1.646-0.399,3.087-0.727,4.323-0.98
		c1.236-0.253,2.075-0.361,2.52-0.325c0.002,0.053-0.026,0.08-0.08,0.082c-0.218,0.113-0.817,0.372-1.799,0.774
		c-0.982,0.403-2.142,0.879-3.478,1.426c-1.337,0.548-2.783,1.124-4.338,1.732c-1.556,0.607-3.017,1.172-4.381,1.694
		c-1.366,0.521-2.539,0.985-3.521,1.388c-0.982,0.403-1.583,0.636-1.802,0.695c-1.636,0.689-3.402,0.857-5.294,0.501
		c-2.226-0.344-3.977-1.336-5.25-2.979c-0.119-0.206-0.237-0.439-0.356-0.699c-0.121-0.259-0.24-0.518-0.359-0.778
		c-0.152-1.206,0.27-2.551,1.27-4.036c0.999-1.483,2.193-2.935,3.583-4.354c1.389-1.419,2.796-2.707,4.223-3.863
		c1.425-1.156,2.461-2.009,3.106-2.559c0.377-0.276,0.974-0.627,1.79-1.051s1.728-0.812,2.74-1.163
		c1.011-0.352,2.107-0.652,3.289-0.905c1.181-0.251,2.325-0.344,3.435-0.278c0.833,0.077,1.355,0.415,1.571,1.013
		c0.214,0.599,0.498,1.182,0.85,1.749C26.176,28.633,26.736,28.824,27.565,28.794z"/>
	<path fill="#808080" d="M69.663,6.058c-0.419,0.7-1.06,1.736-1.925,3.11c-0.865,1.374-1.821,2.91-2.869,4.606
		c-1.048,1.696-2.162,3.448-3.344,5.255c-1.182,1.808-2.271,3.506-3.267,5.094c-0.997,1.59-1.862,2.95-2.597,4.083
		c-0.736,1.132-1.208,1.86-1.417,2.184c0.82-0.292,1.798-0.786,2.936-1.485c1.138-0.698,2.088-1.192,2.853-1.483
		c0.873-0.347,1.743-0.39,2.61-0.131c0.866,0.26,1.59,0.802,2.173,1.624c0.406,0.566,0.746,1.147,1.016,1.743
		c0.27,0.597,0.388,1.238,0.357,1.924c0.007,0.211-0.041,0.424-0.144,0.638c-0.101,0.319-0.356,0.896-0.77,1.727
		c-0.415,0.832-0.893,1.77-1.438,2.816s-1.115,2.147-1.71,3.301c-0.597,1.154-1.14,2.228-1.631,3.219
		c-0.492,0.993-1.046,2.132-1.665,3.418c0.38-0.172,1.305-0.651,2.771-1.44c1.467-0.789,3.013-1.659,4.64-2.613
		c1.901-1.015,4.018-2.195,6.351-3.541c-2.26,1.871-4.275,3.548-6.05,5.033c-0.752,0.658-1.519,1.292-2.299,1.898
		c-0.781,0.607-1.482,1.158-2.1,1.654c-0.619,0.495-1.145,0.896-1.577,1.201c-0.433,0.304-0.703,0.485-0.811,0.542
		c-2.126,0.916-4.21,0.647-6.253-0.81c-0.851-0.603-1.383-1.149-1.593-1.644c-0.211-0.493-0.195-1.219,0.049-2.176
		c0.235-1.167,0.67-2.184,1.304-3.049s1.294-1.758,1.981-2.679c0.739-1.025,1.436-2.038,2.094-3.037
		c0.656-0.997,1.353-2.035,2.091-3.116c-0.058-0.05-0.115-0.087-0.17-0.112c-0.057-0.024-0.115-0.088-0.173-0.192
		c-2.146,0.34-4.057,1.104-5.73,2.295c-1.674,1.192-3.137,2.481-4.389,3.869c-1.252,1.388-2.27,2.741-3.054,4.059
		c-0.784,1.319-1.387,2.275-1.809,2.869c-0.052,0.108-0.171,0.271-0.356,0.487c-0.187,0.218-0.511,0.44-0.973,0.666
		c-0.463,0.228-1.107,0.382-1.935,0.463c-0.827,0.082-1.881,0.014-3.161-0.206c-0.11,0.004-0.393-0.17-0.848-0.523
		c-0.455-0.353-0.712-0.58-0.771-0.685c0.097-0.425,0.17-0.69,0.221-0.798c0.052-0.107,0.075-0.213,0.072-0.319
		c4.928-7.813,9.412-14.873,13.454-21.18c1.731-2.695,3.423-5.363,5.074-8.003s3.172-5.024,4.564-7.155
		c1.391-2.13,2.546-3.923,3.464-5.378c0.917-1.455,1.508-2.345,1.774-2.671c1.217-1.57,2.496-1.403,3.835,0.499
		c0.462,0.564,0.814,1.131,1.056,1.702C70.052,4.542,70.08,5.36,69.663,6.058z"/>
	<path fill="#808080" d="M101.972,42.983c0.004,0.106,0.536-0.098,1.598-0.609c1.061-0.511,2.242-1.132,3.545-1.862
		c1.467-0.789,3.177-1.744,5.129-2.867l0.03,0.868c-1.671,1.271-3.266,2.381-4.78,3.329c-1.301,0.784-2.604,1.502-3.909,2.152
		c-1.306,0.652-2.293,0.884-2.964,0.696c-1.004-0.228-1.619-0.786-1.843-1.675c-0.226-0.888-0.294-1.649-0.204-2.285
		c-1.342,1.207-2.592,2.252-3.75,3.135c-1.16,0.884-2.119,1.55-2.877,1.998c-0.652,0.339-1.275,0.716-1.869,1.132
		c-0.596,0.416-1.247,0.769-1.955,1.057c-1.637,0.689-3.402,0.856-5.295,0.501c-2.227-0.344-3.977-1.336-5.25-2.979
		c-0.119-0.206-0.237-0.438-0.356-0.699c-0.12-0.259-0.239-0.518-0.359-0.777c-0.152-1.207,0.271-2.552,1.271-4.036
		c0.998-1.484,2.193-2.936,3.582-4.354c1.389-1.418,2.797-2.706,4.223-3.863c1.426-1.156,2.462-2.009,3.107-2.559
		c0.376-0.276,0.974-0.627,1.789-1.051c0.814-0.424,1.727-0.812,2.74-1.163c1.01-0.351,2.105-0.652,3.287-0.905
		c1.182-0.251,2.326-0.344,3.436-0.277c0.832,0.077,1.355,0.414,1.57,1.012c0.215,0.6,0.498,1.183,0.85,1.749
		c0.059,0.104,0.145,0.206,0.26,0.308c0.285,0.254,0.619,0.729,1.005,1.427c0.384,0.698,0.538,1.576,0.466,2.632
		c0.007,0.211-0.014,0.436-0.061,0.674c-0.047,0.239-0.121,0.492-0.223,0.759c-0.053,0.056-0.079,0.096-0.078,0.122
		s-0.026,0.067-0.078,0.121c-0.198,0.692-0.405,1.49-0.623,2.393c-0.217,0.904-0.436,1.782-0.654,2.632
		c-0.22,0.852-0.401,1.583-0.547,2.193C102.038,42.52,101.968,42.878,101.972,42.983z M84.63,43.114
		c0.771-0.078,1.899-0.632,3.386-1.659c1.485-1.026,2.979-2.211,4.482-3.556c1.501-1.343,2.825-2.68,3.969-4.012
		c1.143-1.331,1.758-2.314,1.847-2.95c-0.613-0.137-1.225-0.194-1.832-0.173c-0.553,0.02-1.158,0.107-1.816,0.261
		c-0.658,0.155-1.285,0.428-1.881,0.816c-0.377,0.278-1.012,0.747-1.9,1.41c-0.891,0.664-1.833,1.408-2.828,2.233
		s-1.961,1.689-2.896,2.591c-0.938,0.902-1.642,1.731-2.113,2.485c-0.472,0.755-0.616,1.365-0.434,1.833
		C82.794,42.862,83.467,43.103,84.63,43.114z"/>
	<path fill="#808080" d="M133.537,29.878c-0.423,0.595-1.042,1.486-1.857,2.674c-0.817,1.188-1.646,2.416-2.485,3.683
		c-0.842,1.269-1.604,2.415-2.287,3.439c-0.685,1.026-1.104,1.673-1.261,1.941c1.407-0.892,2.625-1.685,3.652-2.38
		c1.026-0.694,2.161-1.459,3.405-2.293c1.243-0.834,2.42-1.626,3.528-2.376c1.107-0.75,2.094-1.417,2.959-2.001
		c0.864-0.583,1.433-0.959,1.704-1.126c-0.156,0.27-0.678,0.802-1.563,1.596c-0.886,0.795-1.96,1.756-3.22,2.879
		c-1.262,1.125-2.617,2.305-4.068,3.541c-1.45,1.236-2.835,2.392-4.153,3.465c-1.318,1.074-2.448,1.997-3.39,2.767
		c-0.941,0.771-1.521,1.239-1.735,1.404l-0.721,0.737c-0.108,0.109-0.312,0.235-0.609,0.377c-0.3,0.143-0.655,0.26-1.066,0.354
		c-0.412,0.093-0.812,0.174-1.195,0.239c-0.386,0.065-0.691,0.05-0.915-0.047c-0.281-0.096-0.521-0.245-0.721-0.449
		c-0.201-0.203-0.416-0.433-0.647-0.689c-0.918-0.968-0.984-2.047-0.195-3.234l15.753-24.264c-1.327,0.046-2.404,0.084-3.233,0.112
		c-0.829,0.029-1.563,0.029-2.199-0.002c-0.638-0.029-1.247-0.062-1.83-0.095c-0.582-0.031-1.232-0.035-1.95-0.011
		c-0.277,0.01-0.529-0.061-0.755-0.211c-0.227-0.149-0.453-0.272-0.677-0.371c-0.339-0.198-0.692-0.397-1.059-0.596
		c-0.367-0.197-0.637-0.425-0.813-0.683c-0.522-0.72-0.824-1.42-0.903-2.104c-0.005-0.157,0.113-0.332,0.355-0.525
		c0.242-0.192,0.474-0.294,0.695-0.302c0.439-0.066,1.364-0.152,2.771-0.255c1.407-0.101,2.952-0.208,4.637-0.319
		c1.684-0.111,3.34-0.208,4.97-0.292c1.629-0.083,2.859-0.112,3.69-0.09c1.154-1.779,2.298-3.491,3.431-5.14
		c1.132-1.646,2.133-3.104,3.002-4.373c0.868-1.268,1.856-2.686,2.964-4.254c0.162-0.11,0.351-0.249,0.566-0.415
		c0.215-0.165,0.379-0.223,0.492-0.175c1.281,0.271,2.374,0.655,3.277,1.15c0.786,0.342,1.19,0.815,1.211,1.42
		c0.021,0.605-0.289,1.235-0.93,1.891c-0.158,0.216-0.463,0.648-0.909,1.296c-0.448,0.648-0.922,1.351-1.421,2.105
		c-0.5,0.756-0.986,1.471-1.46,2.146c-0.475,0.676-0.789,1.174-0.944,1.495c-0.104,0.215-0.233,0.431-0.393,0.646
		c-0.104,0.215-0.247,0.457-0.431,0.727c-0.186,0.271-0.383,0.566-0.592,0.89l5.463-0.428l1.735-0.219
		c0.166-0.006,0.345-0.012,0.539-0.019c0.193-0.007,0.347,0.041,0.462,0.142c0.622,0.4,1.258,0.773,1.906,1.119
		c0.647,0.347,1.257,0.747,1.826,1.201c0.116,0.154,0.235,0.414,0.359,0.778c0.123,0.364,0.134,0.681,0.033,0.947
		c-0.103,0.268-0.259,0.536-0.47,0.807c-0.212,0.271-0.455,0.438-0.729,0.5c-0.607,0.074-1.145,0.133-1.612,0.175
		c-0.47,0.043-1.188,0.095-2.153,0.154c-0.966,0.061-2.306,0.134-4.018,0.219c-1.713,0.087-4.059,0.234-7.039,0.443
		c-1.366,2.104-2.692,4.14-3.979,6.107C135.05,27.679,134.117,29.068,133.537,29.878z"/>
</g>
<g>
</g>
<g>
</g>
<g>
</g>
<g>
</g>
<g>
</g>
<g>
</g>
<g>
</g>
<g>
</g>
<g>
</g>
<g>
</g>
<g>
</g>
<g>
</g>
<g>
</g>
<g>
</g>
<g>
</g>
</svg>
