<?xml version="1.0" encoding="utf-8"?>
<!-- Generator: Adobe Illustrator 16.0.0, SVG Export Plug-In . SVG Version: 6.00 Build 0)  -->
<!DOCTYPE svg PUBLIC "-//W3C//DTD SVG 1.1//EN" "http://www.w3.org/Graphics/SVG/1.1/DTD/svg11.dtd">
<svg version="1.1" id="sun_xA0_Image_1_" xmlns="http://www.w3.org/2000/svg" xmlns:xlink="http://www.w3.org/1999/xlink" x="0px"
	 y="0px" width="260.082px" height="266.75px" viewBox="0 0 260.082 266.75" enable-background="new 0 0 260.082 266.75"
	 xml:space="preserve">
<linearGradient id="sun_1_" gradientUnits="userSpaceOnUse" x1="130.041" y1="266.7505" x2="130.041" y2="2.0005">
	<stop  offset="0" style="stop-color:#FF2A30"/>
	<stop  offset="0.3607" style="stop-color:#FF7800"/>
</linearGradient>
<path id="sun" fill="url(#sun_1_)" d="M259.986,127.25H0.097C2.619,57.652,59.826,2,130.041,2
	C200.256,2,257.463,57.652,259.986,127.25z M254.861,177.25H5.22c1.918,6.563,4.344,12.91,7.224,19c78.221,0,157.028,0,235.192,0
	C250.518,190.161,252.943,183.813,254.861,177.25z M239.711,210.551c-73.283,0.35-146.229-0.051-219.484-0.227
	c4.54,7.148,9.765,13.814,15.569,19.926h188.493C230.031,224.204,235.207,217.614,239.711,210.551z M203.842,243.75H56.244
	c20.96,14.496,46.377,23,73.797,23S182.879,258.247,203.842,243.75z M260.082,142.709H0c0,6.297,0.457,12.484,1.321,18.541h257.44
	C259.625,155.194,260.082,149.006,260.082,142.709z"/>
</svg>
